G04 (created by PCBNEW (2013-07-07 BZR 4022)-stable) date 5/4/2015 11:50:08 PM*
%MOIN*%
G04 Gerber Fmt 3.4, Leading zero omitted, Abs format*
%FSLAX34Y34*%
G01*
G70*
G90*
G04 APERTURE LIST*
%ADD10C,0.00590551*%
%ADD11C,0.05*%
%ADD12C,0.006*%
%ADD13C,0.01*%
%ADD14C,0.005*%
%ADD15C,0.008*%
G04 APERTURE END LIST*
G54D10*
G54D11*
X91850Y-29000D02*
G75*
G03X91850Y-29000I-100J0D01*
G74*
G01*
X91850Y-21000D02*
G75*
G03X91850Y-21000I-100J0D01*
G74*
G01*
X81350Y-29000D02*
G75*
G03X81350Y-29000I-100J0D01*
G74*
G01*
X81350Y-21000D02*
G75*
G03X81350Y-21000I-100J0D01*
G74*
G01*
G54D12*
X90464Y-28821D02*
X90650Y-28821D01*
X90550Y-28935D01*
X90592Y-28935D01*
X90621Y-28950D01*
X90635Y-28964D01*
X90650Y-28992D01*
X90650Y-29064D01*
X90635Y-29092D01*
X90621Y-29107D01*
X90592Y-29121D01*
X90507Y-29121D01*
X90478Y-29107D01*
X90464Y-29092D01*
X90735Y-28821D02*
X90835Y-29121D01*
X90935Y-28821D01*
X91007Y-28821D02*
X91192Y-28821D01*
X91092Y-28935D01*
X91135Y-28935D01*
X91164Y-28950D01*
X91178Y-28964D01*
X91192Y-28992D01*
X91192Y-29064D01*
X91178Y-29092D01*
X91164Y-29107D01*
X91135Y-29121D01*
X91050Y-29121D01*
X91021Y-29107D01*
X91007Y-29092D01*
X90921Y-20821D02*
X90778Y-20821D01*
X90764Y-20964D01*
X90778Y-20950D01*
X90807Y-20935D01*
X90878Y-20935D01*
X90907Y-20950D01*
X90921Y-20964D01*
X90935Y-20992D01*
X90935Y-21064D01*
X90921Y-21092D01*
X90907Y-21107D01*
X90878Y-21121D01*
X90807Y-21121D01*
X90778Y-21107D01*
X90764Y-21092D01*
X91021Y-20821D02*
X91121Y-21121D01*
X91221Y-20821D01*
X81792Y-28821D02*
X81978Y-28821D01*
X81878Y-28935D01*
X81921Y-28935D01*
X81950Y-28950D01*
X81964Y-28964D01*
X81978Y-28992D01*
X81978Y-29064D01*
X81964Y-29092D01*
X81950Y-29107D01*
X81921Y-29121D01*
X81835Y-29121D01*
X81807Y-29107D01*
X81792Y-29092D01*
X82064Y-28821D02*
X82164Y-29121D01*
X82264Y-28821D01*
X82335Y-28821D02*
X82521Y-28821D01*
X82421Y-28935D01*
X82464Y-28935D01*
X82492Y-28950D01*
X82507Y-28964D01*
X82521Y-28992D01*
X82521Y-29064D01*
X82507Y-29092D01*
X82492Y-29107D01*
X82464Y-29121D01*
X82378Y-29121D01*
X82350Y-29107D01*
X82335Y-29092D01*
X81964Y-20821D02*
X81821Y-20821D01*
X81807Y-20964D01*
X81821Y-20950D01*
X81850Y-20935D01*
X81921Y-20935D01*
X81950Y-20950D01*
X81964Y-20964D01*
X81978Y-20992D01*
X81978Y-21064D01*
X81964Y-21092D01*
X81950Y-21107D01*
X81921Y-21121D01*
X81850Y-21121D01*
X81821Y-21107D01*
X81807Y-21092D01*
X82064Y-20821D02*
X82164Y-21121D01*
X82264Y-20821D01*
X80478Y-26335D02*
X80450Y-26321D01*
X80407Y-26321D01*
X80364Y-26335D01*
X80335Y-26364D01*
X80321Y-26392D01*
X80307Y-26450D01*
X80307Y-26492D01*
X80321Y-26550D01*
X80335Y-26578D01*
X80364Y-26607D01*
X80407Y-26621D01*
X80435Y-26621D01*
X80478Y-26607D01*
X80492Y-26592D01*
X80492Y-26492D01*
X80435Y-26492D01*
X80621Y-26621D02*
X80621Y-26321D01*
X80792Y-26621D01*
X80792Y-26321D01*
X80935Y-26621D02*
X80935Y-26321D01*
X81007Y-26321D01*
X81050Y-26335D01*
X81078Y-26364D01*
X81092Y-26392D01*
X81107Y-26450D01*
X81107Y-26492D01*
X81092Y-26550D01*
X81078Y-26578D01*
X81050Y-26607D01*
X81007Y-26621D01*
X80935Y-26621D01*
X80492Y-25621D02*
X80392Y-25478D01*
X80321Y-25621D02*
X80321Y-25321D01*
X80435Y-25321D01*
X80464Y-25335D01*
X80478Y-25350D01*
X80492Y-25378D01*
X80492Y-25421D01*
X80478Y-25450D01*
X80464Y-25464D01*
X80435Y-25478D01*
X80321Y-25478D01*
X80592Y-25321D02*
X80792Y-25621D01*
X80792Y-25321D02*
X80592Y-25621D01*
X80278Y-24321D02*
X80450Y-24321D01*
X80364Y-24621D02*
X80364Y-24321D01*
X80521Y-24321D02*
X80721Y-24621D01*
X80721Y-24321D02*
X80521Y-24621D01*
X80278Y-23321D02*
X80378Y-23621D01*
X80478Y-23321D01*
X80750Y-23592D02*
X80735Y-23607D01*
X80692Y-23621D01*
X80664Y-23621D01*
X80621Y-23607D01*
X80592Y-23578D01*
X80578Y-23550D01*
X80564Y-23492D01*
X80564Y-23450D01*
X80578Y-23392D01*
X80592Y-23364D01*
X80621Y-23335D01*
X80664Y-23321D01*
X80692Y-23321D01*
X80735Y-23335D01*
X80750Y-23350D01*
X81050Y-23592D02*
X81035Y-23607D01*
X80992Y-23621D01*
X80964Y-23621D01*
X80921Y-23607D01*
X80892Y-23578D01*
X80878Y-23550D01*
X80864Y-23492D01*
X80864Y-23450D01*
X80878Y-23392D01*
X80892Y-23364D01*
X80921Y-23335D01*
X80964Y-23321D01*
X80992Y-23321D01*
X81035Y-23335D01*
X81050Y-23350D01*
X92064Y-26335D02*
X92035Y-26321D01*
X91992Y-26321D01*
X91950Y-26335D01*
X91921Y-26364D01*
X91907Y-26392D01*
X91892Y-26450D01*
X91892Y-26492D01*
X91907Y-26550D01*
X91921Y-26578D01*
X91950Y-26607D01*
X91992Y-26621D01*
X92021Y-26621D01*
X92064Y-26607D01*
X92078Y-26592D01*
X92078Y-26492D01*
X92021Y-26492D01*
X92207Y-26621D02*
X92207Y-26321D01*
X92378Y-26621D01*
X92378Y-26321D01*
X92521Y-26621D02*
X92521Y-26321D01*
X92592Y-26321D01*
X92635Y-26335D01*
X92664Y-26364D01*
X92678Y-26392D01*
X92692Y-26450D01*
X92692Y-26492D01*
X92678Y-26550D01*
X92664Y-26578D01*
X92635Y-26607D01*
X92592Y-26621D01*
X92521Y-26621D01*
X92407Y-25621D02*
X92307Y-25478D01*
X92235Y-25621D02*
X92235Y-25321D01*
X92350Y-25321D01*
X92378Y-25335D01*
X92392Y-25350D01*
X92407Y-25378D01*
X92407Y-25421D01*
X92392Y-25450D01*
X92378Y-25464D01*
X92350Y-25478D01*
X92235Y-25478D01*
X92507Y-25321D02*
X92707Y-25621D01*
X92707Y-25321D02*
X92507Y-25621D01*
X92264Y-24321D02*
X92435Y-24321D01*
X92350Y-24621D02*
X92350Y-24321D01*
X92507Y-24321D02*
X92707Y-24621D01*
X92707Y-24321D02*
X92507Y-24621D01*
X91921Y-23321D02*
X92021Y-23621D01*
X92121Y-23321D01*
X92392Y-23592D02*
X92378Y-23607D01*
X92335Y-23621D01*
X92307Y-23621D01*
X92264Y-23607D01*
X92235Y-23578D01*
X92221Y-23550D01*
X92207Y-23492D01*
X92207Y-23450D01*
X92221Y-23392D01*
X92235Y-23364D01*
X92264Y-23335D01*
X92307Y-23321D01*
X92335Y-23321D01*
X92378Y-23335D01*
X92392Y-23350D01*
X92692Y-23592D02*
X92678Y-23607D01*
X92635Y-23621D01*
X92607Y-23621D01*
X92564Y-23607D01*
X92535Y-23578D01*
X92521Y-23550D01*
X92507Y-23492D01*
X92507Y-23450D01*
X92521Y-23392D01*
X92535Y-23364D01*
X92564Y-23335D01*
X92607Y-23321D01*
X92635Y-23321D01*
X92678Y-23335D01*
X92692Y-23350D01*
G54D10*
X83900Y-27750D02*
X83900Y-26900D01*
X83900Y-26900D02*
X82100Y-26900D01*
X82100Y-26900D02*
X82100Y-27750D01*
X82100Y-27750D02*
G75*
G03X83000Y-28650I900J0D01*
G74*
G01*
X83000Y-28650D02*
G75*
G03X83900Y-27750I0J900D01*
G74*
G01*
X89100Y-22250D02*
X89100Y-23100D01*
X89100Y-23100D02*
X90900Y-23100D01*
X90900Y-23100D02*
X90900Y-22250D01*
X90900Y-22250D02*
G75*
G03X90000Y-21350I-900J0D01*
G74*
G01*
X90000Y-21350D02*
G75*
G03X89100Y-22250I0J-900D01*
G74*
G01*
G54D13*
X82000Y-22000D02*
X82000Y-22400D01*
X82000Y-22400D02*
X82400Y-22400D01*
X82400Y-22400D02*
X82400Y-25600D01*
X82400Y-25600D02*
X81600Y-25600D01*
X81600Y-25600D02*
X81600Y-22400D01*
X81600Y-22400D02*
X82000Y-22400D01*
X82000Y-26000D02*
X82000Y-25600D01*
X89000Y-28000D02*
X89000Y-27600D01*
X89000Y-27600D02*
X88600Y-27600D01*
X88600Y-27600D02*
X88600Y-24400D01*
X88600Y-24400D02*
X89400Y-24400D01*
X89400Y-24400D02*
X89400Y-27600D01*
X89400Y-27600D02*
X89000Y-27600D01*
X89000Y-24000D02*
X89000Y-24400D01*
X83000Y-22000D02*
X83000Y-22400D01*
X83000Y-22400D02*
X83400Y-22400D01*
X83400Y-22400D02*
X83400Y-25600D01*
X83400Y-25600D02*
X82600Y-25600D01*
X82600Y-25600D02*
X82600Y-22400D01*
X82600Y-22400D02*
X83000Y-22400D01*
X83000Y-26000D02*
X83000Y-25600D01*
X91000Y-28000D02*
X91000Y-27600D01*
X91000Y-27600D02*
X90600Y-27600D01*
X90600Y-27600D02*
X90600Y-24400D01*
X90600Y-24400D02*
X91400Y-24400D01*
X91400Y-24400D02*
X91400Y-27600D01*
X91400Y-27600D02*
X91000Y-27600D01*
X91000Y-24000D02*
X91000Y-24400D01*
X84000Y-22000D02*
X84000Y-22400D01*
X84000Y-22400D02*
X84400Y-22400D01*
X84400Y-22400D02*
X84400Y-25600D01*
X84400Y-25600D02*
X83600Y-25600D01*
X83600Y-25600D02*
X83600Y-22400D01*
X83600Y-22400D02*
X84000Y-22400D01*
X84000Y-26000D02*
X84000Y-25600D01*
X90000Y-28000D02*
X90000Y-27600D01*
X90000Y-27600D02*
X89600Y-27600D01*
X89600Y-27600D02*
X89600Y-24400D01*
X89600Y-24400D02*
X90400Y-24400D01*
X90400Y-24400D02*
X90400Y-27600D01*
X90400Y-27600D02*
X90000Y-27600D01*
X90000Y-24000D02*
X90000Y-24400D01*
X79000Y-27000D02*
X79000Y-23000D01*
X80000Y-27000D02*
X80000Y-23000D01*
X80000Y-23000D02*
X79000Y-23000D01*
X79000Y-27000D02*
X80000Y-27000D01*
X93000Y-27000D02*
X93000Y-23000D01*
X94000Y-27000D02*
X94000Y-23000D01*
X94000Y-23000D02*
X93000Y-23000D01*
X93000Y-27000D02*
X94000Y-27000D01*
X86500Y-25800D02*
G75*
G03X86800Y-25500I0J300D01*
G74*
G01*
X86200Y-25500D02*
G75*
G03X86500Y-25800I300J0D01*
G74*
G01*
X87500Y-25500D02*
X87500Y-28500D01*
X87500Y-28500D02*
X85500Y-28500D01*
X85500Y-28500D02*
X85500Y-25500D01*
X85500Y-25500D02*
X87500Y-25500D01*
X86500Y-24200D02*
G75*
G03X86200Y-24500I0J-300D01*
G74*
G01*
X86800Y-24500D02*
G75*
G03X86500Y-24200I-300J0D01*
G74*
G01*
X85500Y-24500D02*
X85500Y-21500D01*
X85500Y-21500D02*
X87500Y-21500D01*
X87500Y-21500D02*
X87500Y-24500D01*
X87500Y-24500D02*
X85500Y-24500D01*
G54D12*
X82000Y-27528D02*
X81985Y-27557D01*
X81957Y-27585D01*
X81914Y-27628D01*
X81900Y-27657D01*
X81900Y-27685D01*
X81971Y-27671D02*
X81957Y-27700D01*
X81928Y-27728D01*
X81871Y-27742D01*
X81771Y-27742D01*
X81714Y-27728D01*
X81685Y-27700D01*
X81671Y-27671D01*
X81671Y-27614D01*
X81685Y-27585D01*
X81714Y-27557D01*
X81771Y-27542D01*
X81871Y-27542D01*
X81928Y-27557D01*
X81957Y-27585D01*
X81971Y-27614D01*
X81971Y-27671D01*
X81971Y-27257D02*
X81971Y-27428D01*
X81971Y-27342D02*
X81671Y-27342D01*
X81714Y-27371D01*
X81742Y-27400D01*
X81757Y-27428D01*
G54D14*
X84025Y-28178D02*
X84013Y-28166D01*
X84001Y-28142D01*
X84001Y-28083D01*
X84013Y-28059D01*
X84025Y-28047D01*
X84048Y-28035D01*
X84072Y-28035D01*
X84108Y-28047D01*
X84251Y-28190D01*
X84251Y-28035D01*
X84251Y-27928D02*
X84001Y-27928D01*
X84251Y-27785D01*
X84001Y-27785D01*
X84001Y-27690D02*
X84001Y-27535D01*
X84096Y-27619D01*
X84096Y-27583D01*
X84108Y-27559D01*
X84120Y-27547D01*
X84144Y-27535D01*
X84203Y-27535D01*
X84227Y-27547D01*
X84239Y-27559D01*
X84251Y-27583D01*
X84251Y-27654D01*
X84239Y-27678D01*
X84227Y-27690D01*
X84251Y-27416D02*
X84251Y-27369D01*
X84239Y-27345D01*
X84227Y-27333D01*
X84191Y-27309D01*
X84144Y-27297D01*
X84048Y-27297D01*
X84025Y-27309D01*
X84013Y-27321D01*
X84001Y-27345D01*
X84001Y-27392D01*
X84013Y-27416D01*
X84025Y-27428D01*
X84048Y-27440D01*
X84108Y-27440D01*
X84132Y-27428D01*
X84144Y-27416D01*
X84155Y-27392D01*
X84155Y-27345D01*
X84144Y-27321D01*
X84132Y-27309D01*
X84108Y-27297D01*
X84001Y-27142D02*
X84001Y-27119D01*
X84013Y-27095D01*
X84025Y-27083D01*
X84048Y-27071D01*
X84096Y-27059D01*
X84155Y-27059D01*
X84203Y-27071D01*
X84227Y-27083D01*
X84239Y-27095D01*
X84251Y-27119D01*
X84251Y-27142D01*
X84239Y-27166D01*
X84227Y-27178D01*
X84203Y-27190D01*
X84155Y-27202D01*
X84096Y-27202D01*
X84048Y-27190D01*
X84025Y-27178D01*
X84013Y-27166D01*
X84001Y-27142D01*
X84001Y-26845D02*
X84001Y-26892D01*
X84013Y-26916D01*
X84025Y-26928D01*
X84060Y-26952D01*
X84108Y-26964D01*
X84203Y-26964D01*
X84227Y-26952D01*
X84239Y-26940D01*
X84251Y-26916D01*
X84251Y-26869D01*
X84239Y-26845D01*
X84227Y-26833D01*
X84203Y-26821D01*
X84144Y-26821D01*
X84120Y-26833D01*
X84108Y-26845D01*
X84096Y-26869D01*
X84096Y-26916D01*
X84108Y-26940D01*
X84120Y-26952D01*
X84144Y-26964D01*
X83446Y-28070D02*
X83529Y-28070D01*
X83565Y-28201D02*
X83446Y-28201D01*
X83446Y-27951D01*
X83565Y-27951D01*
X83017Y-27420D02*
X83053Y-27432D01*
X83065Y-27444D01*
X83077Y-27467D01*
X83077Y-27503D01*
X83065Y-27527D01*
X83053Y-27539D01*
X83029Y-27551D01*
X82934Y-27551D01*
X82934Y-27301D01*
X83017Y-27301D01*
X83041Y-27313D01*
X83053Y-27325D01*
X83065Y-27348D01*
X83065Y-27372D01*
X83053Y-27396D01*
X83041Y-27408D01*
X83017Y-27420D01*
X82934Y-27420D01*
X82577Y-28177D02*
X82565Y-28189D01*
X82529Y-28201D01*
X82505Y-28201D01*
X82470Y-28189D01*
X82446Y-28165D01*
X82434Y-28141D01*
X82422Y-28094D01*
X82422Y-28058D01*
X82434Y-28010D01*
X82446Y-27986D01*
X82470Y-27963D01*
X82505Y-27951D01*
X82529Y-27951D01*
X82565Y-27963D01*
X82577Y-27975D01*
G54D12*
X91300Y-22528D02*
X91285Y-22557D01*
X91257Y-22585D01*
X91214Y-22628D01*
X91200Y-22657D01*
X91200Y-22685D01*
X91271Y-22671D02*
X91257Y-22700D01*
X91228Y-22728D01*
X91171Y-22742D01*
X91071Y-22742D01*
X91014Y-22728D01*
X90985Y-22700D01*
X90971Y-22671D01*
X90971Y-22614D01*
X90985Y-22585D01*
X91014Y-22557D01*
X91071Y-22542D01*
X91171Y-22542D01*
X91228Y-22557D01*
X91257Y-22585D01*
X91271Y-22614D01*
X91271Y-22671D01*
X91000Y-22428D02*
X90985Y-22414D01*
X90971Y-22385D01*
X90971Y-22314D01*
X90985Y-22285D01*
X91000Y-22271D01*
X91028Y-22257D01*
X91057Y-22257D01*
X91100Y-22271D01*
X91271Y-22442D01*
X91271Y-22257D01*
G54D14*
X88725Y-23178D02*
X88713Y-23166D01*
X88701Y-23142D01*
X88701Y-23083D01*
X88713Y-23059D01*
X88725Y-23047D01*
X88748Y-23035D01*
X88772Y-23035D01*
X88808Y-23047D01*
X88951Y-23190D01*
X88951Y-23035D01*
X88951Y-22928D02*
X88701Y-22928D01*
X88951Y-22785D01*
X88701Y-22785D01*
X88701Y-22690D02*
X88701Y-22535D01*
X88796Y-22619D01*
X88796Y-22583D01*
X88808Y-22559D01*
X88820Y-22547D01*
X88844Y-22535D01*
X88903Y-22535D01*
X88927Y-22547D01*
X88939Y-22559D01*
X88951Y-22583D01*
X88951Y-22654D01*
X88939Y-22678D01*
X88927Y-22690D01*
X88951Y-22416D02*
X88951Y-22369D01*
X88939Y-22345D01*
X88927Y-22333D01*
X88891Y-22309D01*
X88844Y-22297D01*
X88748Y-22297D01*
X88725Y-22309D01*
X88713Y-22321D01*
X88701Y-22345D01*
X88701Y-22392D01*
X88713Y-22416D01*
X88725Y-22428D01*
X88748Y-22440D01*
X88808Y-22440D01*
X88832Y-22428D01*
X88844Y-22416D01*
X88855Y-22392D01*
X88855Y-22345D01*
X88844Y-22321D01*
X88832Y-22309D01*
X88808Y-22297D01*
X88701Y-22142D02*
X88701Y-22119D01*
X88713Y-22095D01*
X88725Y-22083D01*
X88748Y-22071D01*
X88796Y-22059D01*
X88855Y-22059D01*
X88903Y-22071D01*
X88927Y-22083D01*
X88939Y-22095D01*
X88951Y-22119D01*
X88951Y-22142D01*
X88939Y-22166D01*
X88927Y-22178D01*
X88903Y-22190D01*
X88855Y-22202D01*
X88796Y-22202D01*
X88748Y-22190D01*
X88725Y-22178D01*
X88713Y-22166D01*
X88701Y-22142D01*
X88701Y-21845D02*
X88701Y-21892D01*
X88713Y-21916D01*
X88725Y-21928D01*
X88760Y-21952D01*
X88808Y-21964D01*
X88903Y-21964D01*
X88927Y-21952D01*
X88939Y-21940D01*
X88951Y-21916D01*
X88951Y-21869D01*
X88939Y-21845D01*
X88927Y-21833D01*
X88903Y-21821D01*
X88844Y-21821D01*
X88820Y-21833D01*
X88808Y-21845D01*
X88796Y-21869D01*
X88796Y-21916D01*
X88808Y-21940D01*
X88820Y-21952D01*
X88844Y-21964D01*
X89446Y-21870D02*
X89529Y-21870D01*
X89565Y-22001D02*
X89446Y-22001D01*
X89446Y-21751D01*
X89565Y-21751D01*
X90017Y-22520D02*
X90053Y-22532D01*
X90065Y-22544D01*
X90077Y-22567D01*
X90077Y-22603D01*
X90065Y-22627D01*
X90053Y-22639D01*
X90029Y-22651D01*
X89934Y-22651D01*
X89934Y-22401D01*
X90017Y-22401D01*
X90041Y-22413D01*
X90053Y-22425D01*
X90065Y-22448D01*
X90065Y-22472D01*
X90053Y-22496D01*
X90041Y-22508D01*
X90017Y-22520D01*
X89934Y-22520D01*
X90577Y-21977D02*
X90565Y-21989D01*
X90529Y-22001D01*
X90505Y-22001D01*
X90470Y-21989D01*
X90446Y-21965D01*
X90434Y-21941D01*
X90422Y-21894D01*
X90422Y-21858D01*
X90434Y-21810D01*
X90446Y-21786D01*
X90470Y-21763D01*
X90505Y-21751D01*
X90529Y-21751D01*
X90565Y-21763D01*
X90577Y-21775D01*
G54D12*
X82121Y-23250D02*
X81978Y-23350D01*
X82121Y-23421D02*
X81821Y-23421D01*
X81821Y-23307D01*
X81835Y-23278D01*
X81850Y-23264D01*
X81878Y-23250D01*
X81921Y-23250D01*
X81950Y-23264D01*
X81964Y-23278D01*
X81978Y-23307D01*
X81978Y-23421D01*
X82121Y-22964D02*
X82121Y-23135D01*
X82121Y-23050D02*
X81821Y-23050D01*
X81864Y-23078D01*
X81892Y-23107D01*
X81907Y-23135D01*
X81921Y-25078D02*
X82121Y-25078D01*
X81807Y-25150D02*
X82021Y-25221D01*
X82021Y-25035D01*
X82092Y-24921D02*
X82107Y-24907D01*
X82121Y-24921D01*
X82107Y-24935D01*
X82092Y-24921D01*
X82121Y-24921D01*
X81821Y-24807D02*
X81821Y-24607D01*
X82121Y-24735D01*
X82121Y-24492D02*
X81821Y-24492D01*
X82007Y-24464D02*
X82121Y-24378D01*
X81921Y-24378D02*
X82035Y-24492D01*
X89121Y-26850D02*
X88978Y-26950D01*
X89121Y-27021D02*
X88821Y-27021D01*
X88821Y-26907D01*
X88835Y-26878D01*
X88850Y-26864D01*
X88878Y-26850D01*
X88921Y-26850D01*
X88950Y-26864D01*
X88964Y-26878D01*
X88978Y-26907D01*
X88978Y-27021D01*
X88921Y-26592D02*
X89121Y-26592D01*
X88807Y-26664D02*
X89021Y-26735D01*
X89021Y-26550D01*
X88921Y-25428D02*
X89121Y-25428D01*
X88807Y-25500D02*
X89021Y-25571D01*
X89021Y-25385D01*
X88821Y-25300D02*
X88821Y-25100D01*
X89121Y-25228D01*
X88821Y-24928D02*
X88821Y-24900D01*
X88835Y-24871D01*
X88850Y-24857D01*
X88878Y-24842D01*
X88935Y-24828D01*
X89007Y-24828D01*
X89064Y-24842D01*
X89092Y-24857D01*
X89107Y-24871D01*
X89121Y-24900D01*
X89121Y-24928D01*
X89107Y-24957D01*
X89092Y-24971D01*
X89064Y-24985D01*
X89007Y-25000D01*
X88935Y-25000D01*
X88878Y-24985D01*
X88850Y-24971D01*
X88835Y-24957D01*
X88821Y-24928D01*
X83121Y-23250D02*
X82978Y-23350D01*
X83121Y-23421D02*
X82821Y-23421D01*
X82821Y-23307D01*
X82835Y-23278D01*
X82850Y-23264D01*
X82878Y-23250D01*
X82921Y-23250D01*
X82950Y-23264D01*
X82964Y-23278D01*
X82978Y-23307D01*
X82978Y-23421D01*
X82850Y-23135D02*
X82835Y-23121D01*
X82821Y-23092D01*
X82821Y-23021D01*
X82835Y-22992D01*
X82850Y-22978D01*
X82878Y-22964D01*
X82907Y-22964D01*
X82950Y-22978D01*
X83121Y-23150D01*
X83121Y-22964D01*
X82821Y-25185D02*
X82821Y-25000D01*
X82935Y-25100D01*
X82935Y-25057D01*
X82950Y-25028D01*
X82964Y-25014D01*
X82992Y-25000D01*
X83064Y-25000D01*
X83092Y-25014D01*
X83107Y-25028D01*
X83121Y-25057D01*
X83121Y-25142D01*
X83107Y-25171D01*
X83092Y-25185D01*
X82821Y-24900D02*
X82821Y-24714D01*
X82935Y-24814D01*
X82935Y-24771D01*
X82950Y-24742D01*
X82964Y-24728D01*
X82992Y-24714D01*
X83064Y-24714D01*
X83092Y-24728D01*
X83107Y-24742D01*
X83121Y-24771D01*
X83121Y-24857D01*
X83107Y-24885D01*
X83092Y-24900D01*
X82821Y-24528D02*
X82821Y-24500D01*
X82835Y-24471D01*
X82850Y-24457D01*
X82878Y-24442D01*
X82935Y-24428D01*
X83007Y-24428D01*
X83064Y-24442D01*
X83092Y-24457D01*
X83107Y-24471D01*
X83121Y-24500D01*
X83121Y-24528D01*
X83107Y-24557D01*
X83092Y-24571D01*
X83064Y-24585D01*
X83007Y-24600D01*
X82935Y-24600D01*
X82878Y-24585D01*
X82850Y-24571D01*
X82835Y-24557D01*
X82821Y-24528D01*
X91121Y-26850D02*
X90978Y-26950D01*
X91121Y-27021D02*
X90821Y-27021D01*
X90821Y-26907D01*
X90835Y-26878D01*
X90850Y-26864D01*
X90878Y-26850D01*
X90921Y-26850D01*
X90950Y-26864D01*
X90964Y-26878D01*
X90978Y-26907D01*
X90978Y-27021D01*
X90821Y-26592D02*
X90821Y-26650D01*
X90835Y-26678D01*
X90850Y-26692D01*
X90892Y-26721D01*
X90950Y-26735D01*
X91064Y-26735D01*
X91092Y-26721D01*
X91107Y-26707D01*
X91121Y-26678D01*
X91121Y-26621D01*
X91107Y-26592D01*
X91092Y-26578D01*
X91064Y-26564D01*
X90992Y-26564D01*
X90964Y-26578D01*
X90950Y-26592D01*
X90935Y-26621D01*
X90935Y-26678D01*
X90950Y-26707D01*
X90964Y-26721D01*
X90992Y-26735D01*
X90921Y-25478D02*
X91121Y-25478D01*
X90807Y-25550D02*
X91021Y-25621D01*
X91021Y-25435D01*
X91092Y-25321D02*
X91107Y-25307D01*
X91121Y-25321D01*
X91107Y-25335D01*
X91092Y-25321D01*
X91121Y-25321D01*
X90821Y-25207D02*
X90821Y-25007D01*
X91121Y-25135D01*
X91121Y-24892D02*
X90821Y-24892D01*
X91007Y-24864D02*
X91121Y-24778D01*
X90921Y-24778D02*
X91035Y-24892D01*
X84121Y-23250D02*
X83978Y-23350D01*
X84121Y-23421D02*
X83821Y-23421D01*
X83821Y-23307D01*
X83835Y-23278D01*
X83850Y-23264D01*
X83878Y-23250D01*
X83921Y-23250D01*
X83950Y-23264D01*
X83964Y-23278D01*
X83978Y-23307D01*
X83978Y-23421D01*
X83821Y-23150D02*
X83821Y-22964D01*
X83935Y-23064D01*
X83935Y-23021D01*
X83950Y-22992D01*
X83964Y-22978D01*
X83992Y-22964D01*
X84064Y-22964D01*
X84092Y-22978D01*
X84107Y-22992D01*
X84121Y-23021D01*
X84121Y-23107D01*
X84107Y-23135D01*
X84092Y-23150D01*
X83921Y-25028D02*
X84121Y-25028D01*
X83807Y-25100D02*
X84021Y-25171D01*
X84021Y-24985D01*
X83821Y-24900D02*
X83821Y-24700D01*
X84121Y-24828D01*
X83821Y-24528D02*
X83821Y-24500D01*
X83835Y-24471D01*
X83850Y-24457D01*
X83878Y-24442D01*
X83935Y-24428D01*
X84007Y-24428D01*
X84064Y-24442D01*
X84092Y-24457D01*
X84107Y-24471D01*
X84121Y-24500D01*
X84121Y-24528D01*
X84107Y-24557D01*
X84092Y-24571D01*
X84064Y-24585D01*
X84007Y-24600D01*
X83935Y-24600D01*
X83878Y-24585D01*
X83850Y-24571D01*
X83835Y-24557D01*
X83821Y-24528D01*
X90121Y-26850D02*
X89978Y-26950D01*
X90121Y-27021D02*
X89821Y-27021D01*
X89821Y-26907D01*
X89835Y-26878D01*
X89850Y-26864D01*
X89878Y-26850D01*
X89921Y-26850D01*
X89950Y-26864D01*
X89964Y-26878D01*
X89978Y-26907D01*
X89978Y-27021D01*
X89821Y-26578D02*
X89821Y-26721D01*
X89964Y-26735D01*
X89950Y-26721D01*
X89935Y-26692D01*
X89935Y-26621D01*
X89950Y-26592D01*
X89964Y-26578D01*
X89992Y-26564D01*
X90064Y-26564D01*
X90092Y-26578D01*
X90107Y-26592D01*
X90121Y-26621D01*
X90121Y-26692D01*
X90107Y-26721D01*
X90092Y-26735D01*
X89821Y-25585D02*
X89821Y-25400D01*
X89935Y-25500D01*
X89935Y-25457D01*
X89950Y-25428D01*
X89964Y-25414D01*
X89992Y-25400D01*
X90064Y-25400D01*
X90092Y-25414D01*
X90107Y-25428D01*
X90121Y-25457D01*
X90121Y-25542D01*
X90107Y-25571D01*
X90092Y-25585D01*
X89821Y-25300D02*
X89821Y-25114D01*
X89935Y-25214D01*
X89935Y-25171D01*
X89950Y-25142D01*
X89964Y-25128D01*
X89992Y-25114D01*
X90064Y-25114D01*
X90092Y-25128D01*
X90107Y-25142D01*
X90121Y-25171D01*
X90121Y-25257D01*
X90107Y-25285D01*
X90092Y-25300D01*
X89821Y-24928D02*
X89821Y-24900D01*
X89835Y-24871D01*
X89850Y-24857D01*
X89878Y-24842D01*
X89935Y-24828D01*
X90007Y-24828D01*
X90064Y-24842D01*
X90092Y-24857D01*
X90107Y-24871D01*
X90121Y-24900D01*
X90121Y-24928D01*
X90107Y-24957D01*
X90092Y-24971D01*
X90064Y-24985D01*
X90007Y-25000D01*
X89935Y-25000D01*
X89878Y-24985D01*
X89850Y-24971D01*
X89835Y-24957D01*
X89821Y-24928D01*
G54D14*
X85559Y-25101D02*
X85559Y-25303D01*
X85571Y-25327D01*
X85583Y-25339D01*
X85607Y-25351D01*
X85654Y-25351D01*
X85678Y-25339D01*
X85690Y-25327D01*
X85702Y-25303D01*
X85702Y-25101D01*
X85952Y-25351D02*
X85809Y-25351D01*
X85880Y-25351D02*
X85880Y-25101D01*
X85857Y-25136D01*
X85833Y-25160D01*
X85809Y-25172D01*
G54D15*
X86395Y-27514D02*
X86661Y-27514D01*
X86242Y-27609D02*
X86528Y-27704D01*
X86528Y-27457D01*
X86661Y-27304D02*
X86261Y-27304D01*
X86661Y-27076D01*
X86261Y-27076D01*
X86261Y-26923D02*
X86261Y-26676D01*
X86414Y-26809D01*
X86414Y-26752D01*
X86433Y-26714D01*
X86452Y-26695D01*
X86490Y-26676D01*
X86585Y-26676D01*
X86623Y-26695D01*
X86642Y-26714D01*
X86661Y-26752D01*
X86661Y-26866D01*
X86642Y-26904D01*
X86623Y-26923D01*
X86261Y-26314D02*
X86261Y-26504D01*
X86452Y-26523D01*
X86433Y-26504D01*
X86414Y-26466D01*
X86414Y-26371D01*
X86433Y-26333D01*
X86452Y-26314D01*
X86490Y-26295D01*
X86585Y-26295D01*
X86623Y-26314D01*
X86642Y-26333D01*
X86661Y-26371D01*
X86661Y-26466D01*
X86642Y-26504D01*
X86623Y-26523D01*
G54D14*
X87059Y-24601D02*
X87059Y-24803D01*
X87071Y-24827D01*
X87083Y-24839D01*
X87107Y-24851D01*
X87154Y-24851D01*
X87178Y-24839D01*
X87190Y-24827D01*
X87202Y-24803D01*
X87202Y-24601D01*
X87309Y-24625D02*
X87321Y-24613D01*
X87345Y-24601D01*
X87404Y-24601D01*
X87428Y-24613D01*
X87440Y-24625D01*
X87452Y-24648D01*
X87452Y-24672D01*
X87440Y-24708D01*
X87297Y-24851D01*
X87452Y-24851D01*
G54D15*
X86395Y-23514D02*
X86661Y-23514D01*
X86242Y-23609D02*
X86528Y-23704D01*
X86528Y-23457D01*
X86661Y-23304D02*
X86261Y-23304D01*
X86661Y-23076D01*
X86261Y-23076D01*
X86261Y-22923D02*
X86261Y-22676D01*
X86414Y-22809D01*
X86414Y-22752D01*
X86433Y-22714D01*
X86452Y-22695D01*
X86490Y-22676D01*
X86585Y-22676D01*
X86623Y-22695D01*
X86642Y-22714D01*
X86661Y-22752D01*
X86661Y-22866D01*
X86642Y-22904D01*
X86623Y-22923D01*
X86261Y-22314D02*
X86261Y-22504D01*
X86452Y-22523D01*
X86433Y-22504D01*
X86414Y-22466D01*
X86414Y-22371D01*
X86433Y-22333D01*
X86452Y-22314D01*
X86490Y-22295D01*
X86585Y-22295D01*
X86623Y-22314D01*
X86642Y-22333D01*
X86661Y-22371D01*
X86661Y-22466D01*
X86642Y-22504D01*
X86623Y-22523D01*
M02*
