G04 (created by PCBNEW (2013-07-07 BZR 4022)-stable) date 5/4/2015 1:05:14 AM*
%MOIN*%
G04 Gerber Fmt 3.4, Leading zero omitted, Abs format*
%FSLAX34Y34*%
G01*
G70*
G90*
G04 APERTURE LIST*
%ADD10C,0.00590551*%
%ADD11C,0.005*%
%ADD12C,0.008*%
%ADD13C,0.0001*%
G04 APERTURE END LIST*
G54D10*
G54D11*
X89291Y-29196D02*
X89303Y-29184D01*
X89327Y-29148D01*
X89339Y-29125D01*
X89351Y-29089D01*
X89363Y-29029D01*
X89363Y-28982D01*
X89351Y-28922D01*
X89339Y-28886D01*
X89327Y-28863D01*
X89303Y-28827D01*
X89291Y-28815D01*
X89208Y-29089D02*
X89184Y-29101D01*
X89136Y-29101D01*
X89113Y-29089D01*
X89101Y-29065D01*
X89101Y-29053D01*
X89113Y-29029D01*
X89136Y-29017D01*
X89172Y-29017D01*
X89196Y-29005D01*
X89208Y-28982D01*
X89208Y-28970D01*
X89196Y-28946D01*
X89172Y-28934D01*
X89136Y-28934D01*
X89113Y-28946D01*
X88886Y-28934D02*
X88886Y-29101D01*
X88994Y-28934D02*
X88994Y-29065D01*
X88982Y-29089D01*
X88958Y-29101D01*
X88922Y-29101D01*
X88898Y-29089D01*
X88886Y-29077D01*
X88767Y-28934D02*
X88767Y-29184D01*
X88767Y-28946D02*
X88744Y-28934D01*
X88696Y-28934D01*
X88672Y-28946D01*
X88660Y-28958D01*
X88648Y-28982D01*
X88648Y-29053D01*
X88660Y-29077D01*
X88672Y-29089D01*
X88696Y-29101D01*
X88744Y-29101D01*
X88767Y-29089D01*
X88541Y-28934D02*
X88541Y-29184D01*
X88541Y-28946D02*
X88517Y-28934D01*
X88470Y-28934D01*
X88446Y-28946D01*
X88434Y-28958D01*
X88422Y-28982D01*
X88422Y-29053D01*
X88434Y-29077D01*
X88446Y-29089D01*
X88470Y-29101D01*
X88517Y-29101D01*
X88541Y-29089D01*
X88279Y-29101D02*
X88303Y-29089D01*
X88315Y-29077D01*
X88327Y-29053D01*
X88327Y-28982D01*
X88315Y-28958D01*
X88303Y-28946D01*
X88279Y-28934D01*
X88244Y-28934D01*
X88220Y-28946D01*
X88208Y-28958D01*
X88196Y-28982D01*
X88196Y-29053D01*
X88208Y-29077D01*
X88220Y-29089D01*
X88244Y-29101D01*
X88279Y-29101D01*
X88089Y-29101D02*
X88089Y-28934D01*
X88089Y-28982D02*
X88077Y-28958D01*
X88065Y-28946D01*
X88041Y-28934D01*
X88017Y-28934D01*
X87970Y-28934D02*
X87875Y-28934D01*
X87934Y-28851D02*
X87934Y-29065D01*
X87922Y-29089D01*
X87898Y-29101D01*
X87875Y-29101D01*
X87803Y-29089D02*
X87779Y-29101D01*
X87732Y-29101D01*
X87708Y-29089D01*
X87696Y-29065D01*
X87696Y-29053D01*
X87708Y-29029D01*
X87732Y-29017D01*
X87767Y-29017D01*
X87791Y-29005D01*
X87803Y-28982D01*
X87803Y-28970D01*
X87791Y-28946D01*
X87767Y-28934D01*
X87732Y-28934D01*
X87708Y-28946D01*
X87291Y-29101D02*
X87291Y-28970D01*
X87303Y-28946D01*
X87327Y-28934D01*
X87375Y-28934D01*
X87398Y-28946D01*
X87291Y-29089D02*
X87315Y-29101D01*
X87375Y-29101D01*
X87398Y-29089D01*
X87410Y-29065D01*
X87410Y-29041D01*
X87398Y-29017D01*
X87375Y-29005D01*
X87315Y-29005D01*
X87291Y-28994D01*
X87208Y-28934D02*
X87113Y-28934D01*
X87172Y-28851D02*
X87172Y-29065D01*
X87160Y-29089D01*
X87136Y-29101D01*
X87113Y-29101D01*
X86803Y-29101D02*
X86827Y-29089D01*
X86839Y-29065D01*
X86839Y-28851D01*
X86613Y-29089D02*
X86636Y-29101D01*
X86684Y-29101D01*
X86708Y-29089D01*
X86720Y-29065D01*
X86720Y-28970D01*
X86708Y-28946D01*
X86684Y-28934D01*
X86636Y-28934D01*
X86613Y-28946D01*
X86601Y-28970D01*
X86601Y-28994D01*
X86720Y-29017D01*
X86386Y-29101D02*
X86386Y-28970D01*
X86398Y-28946D01*
X86422Y-28934D01*
X86470Y-28934D01*
X86494Y-28946D01*
X86386Y-29089D02*
X86410Y-29101D01*
X86470Y-29101D01*
X86494Y-29089D01*
X86505Y-29065D01*
X86505Y-29041D01*
X86494Y-29017D01*
X86470Y-29005D01*
X86410Y-29005D01*
X86386Y-28994D01*
X86279Y-29089D02*
X86255Y-29101D01*
X86208Y-29101D01*
X86184Y-29089D01*
X86172Y-29065D01*
X86172Y-29053D01*
X86184Y-29029D01*
X86208Y-29017D01*
X86244Y-29017D01*
X86267Y-29005D01*
X86279Y-28982D01*
X86279Y-28970D01*
X86267Y-28946D01*
X86244Y-28934D01*
X86208Y-28934D01*
X86184Y-28946D01*
X86101Y-28934D02*
X86005Y-28934D01*
X86065Y-28851D02*
X86065Y-29065D01*
X86053Y-29089D01*
X86029Y-29101D01*
X86005Y-29101D01*
X85720Y-29101D02*
X85672Y-29101D01*
X85648Y-29089D01*
X85636Y-29077D01*
X85613Y-29041D01*
X85601Y-28994D01*
X85601Y-28898D01*
X85613Y-28875D01*
X85624Y-28863D01*
X85648Y-28851D01*
X85696Y-28851D01*
X85720Y-28863D01*
X85732Y-28875D01*
X85744Y-28898D01*
X85744Y-28958D01*
X85732Y-28982D01*
X85720Y-28994D01*
X85696Y-29005D01*
X85648Y-29005D01*
X85624Y-28994D01*
X85613Y-28982D01*
X85601Y-28958D01*
X85386Y-28851D02*
X85434Y-28851D01*
X85458Y-28863D01*
X85470Y-28875D01*
X85494Y-28910D01*
X85505Y-28958D01*
X85505Y-29053D01*
X85494Y-29077D01*
X85482Y-29089D01*
X85458Y-29101D01*
X85410Y-29101D01*
X85386Y-29089D01*
X85374Y-29077D01*
X85363Y-29053D01*
X85363Y-28994D01*
X85374Y-28970D01*
X85386Y-28958D01*
X85410Y-28946D01*
X85458Y-28946D01*
X85482Y-28958D01*
X85494Y-28970D01*
X85505Y-28994D01*
X85208Y-28851D02*
X85184Y-28851D01*
X85160Y-28863D01*
X85148Y-28875D01*
X85136Y-28898D01*
X85124Y-28946D01*
X85124Y-29005D01*
X85136Y-29053D01*
X85148Y-29077D01*
X85160Y-29089D01*
X85184Y-29101D01*
X85208Y-29101D01*
X85232Y-29089D01*
X85244Y-29077D01*
X85255Y-29053D01*
X85267Y-29005D01*
X85267Y-28946D01*
X85255Y-28898D01*
X85244Y-28875D01*
X85232Y-28863D01*
X85208Y-28851D01*
X84970Y-28851D02*
X84946Y-28851D01*
X84922Y-28863D01*
X84910Y-28875D01*
X84898Y-28898D01*
X84886Y-28946D01*
X84886Y-29005D01*
X84898Y-29053D01*
X84910Y-29077D01*
X84922Y-29089D01*
X84946Y-29101D01*
X84970Y-29101D01*
X84994Y-29089D01*
X85005Y-29077D01*
X85017Y-29053D01*
X85029Y-29005D01*
X85029Y-28946D01*
X85017Y-28898D01*
X85005Y-28875D01*
X84994Y-28863D01*
X84970Y-28851D01*
X84589Y-29101D02*
X84589Y-28851D01*
X84589Y-28946D02*
X84565Y-28934D01*
X84517Y-28934D01*
X84494Y-28946D01*
X84482Y-28958D01*
X84470Y-28982D01*
X84470Y-29053D01*
X84482Y-29077D01*
X84494Y-29089D01*
X84517Y-29101D01*
X84565Y-29101D01*
X84589Y-29089D01*
X84255Y-29101D02*
X84255Y-28970D01*
X84267Y-28946D01*
X84291Y-28934D01*
X84339Y-28934D01*
X84363Y-28946D01*
X84255Y-29089D02*
X84279Y-29101D01*
X84339Y-29101D01*
X84363Y-29089D01*
X84374Y-29065D01*
X84374Y-29041D01*
X84363Y-29017D01*
X84339Y-29005D01*
X84279Y-29005D01*
X84255Y-28994D01*
X84029Y-28934D02*
X84029Y-29101D01*
X84136Y-28934D02*
X84136Y-29065D01*
X84124Y-29089D01*
X84101Y-29101D01*
X84065Y-29101D01*
X84041Y-29089D01*
X84029Y-29077D01*
X83803Y-29101D02*
X83803Y-28851D01*
X83803Y-29089D02*
X83827Y-29101D01*
X83874Y-29101D01*
X83898Y-29089D01*
X83910Y-29077D01*
X83922Y-29053D01*
X83922Y-28982D01*
X83910Y-28958D01*
X83898Y-28946D01*
X83874Y-28934D01*
X83827Y-28934D01*
X83803Y-28946D01*
X83708Y-29196D02*
X83696Y-29184D01*
X83672Y-29148D01*
X83660Y-29125D01*
X83648Y-29089D01*
X83636Y-29029D01*
X83636Y-28982D01*
X83648Y-28922D01*
X83660Y-28886D01*
X83672Y-28863D01*
X83696Y-28827D01*
X83708Y-28815D01*
G54D12*
X90423Y-20761D02*
X90195Y-20761D01*
X90309Y-21161D02*
X90309Y-20761D01*
X90119Y-20761D02*
X89890Y-20761D01*
X90004Y-21161D02*
X90004Y-20761D01*
X89566Y-21161D02*
X89757Y-21161D01*
X89757Y-20761D01*
X89147Y-21142D02*
X89090Y-21161D01*
X88995Y-21161D01*
X88957Y-21142D01*
X88938Y-21123D01*
X88919Y-21085D01*
X88919Y-21047D01*
X88938Y-21009D01*
X88957Y-20990D01*
X88995Y-20971D01*
X89071Y-20952D01*
X89109Y-20933D01*
X89128Y-20914D01*
X89147Y-20876D01*
X89147Y-20838D01*
X89128Y-20800D01*
X89109Y-20780D01*
X89071Y-20761D01*
X88976Y-20761D01*
X88919Y-20780D01*
X88595Y-21142D02*
X88633Y-21161D01*
X88709Y-21161D01*
X88747Y-21142D01*
X88766Y-21104D01*
X88766Y-20952D01*
X88747Y-20914D01*
X88709Y-20895D01*
X88633Y-20895D01*
X88595Y-20914D01*
X88576Y-20952D01*
X88576Y-20990D01*
X88766Y-21028D01*
X88404Y-21161D02*
X88404Y-20895D01*
X88404Y-20971D02*
X88385Y-20933D01*
X88366Y-20914D01*
X88328Y-20895D01*
X88290Y-20895D01*
X88157Y-21161D02*
X88157Y-20895D01*
X88157Y-20761D02*
X88176Y-20780D01*
X88157Y-20800D01*
X88138Y-20780D01*
X88157Y-20761D01*
X88157Y-20800D01*
X87795Y-21161D02*
X87795Y-20952D01*
X87814Y-20914D01*
X87852Y-20895D01*
X87928Y-20895D01*
X87966Y-20914D01*
X87795Y-21142D02*
X87833Y-21161D01*
X87928Y-21161D01*
X87966Y-21142D01*
X87985Y-21104D01*
X87985Y-21066D01*
X87966Y-21028D01*
X87928Y-21009D01*
X87833Y-21009D01*
X87795Y-20990D01*
X87547Y-21161D02*
X87585Y-21142D01*
X87604Y-21104D01*
X87604Y-20761D01*
X87014Y-20761D02*
X86938Y-20761D01*
X86900Y-20780D01*
X86861Y-20819D01*
X86842Y-20895D01*
X86842Y-21028D01*
X86861Y-21104D01*
X86900Y-21142D01*
X86938Y-21161D01*
X87014Y-21161D01*
X87052Y-21142D01*
X87090Y-21104D01*
X87109Y-21028D01*
X87109Y-20895D01*
X87090Y-20819D01*
X87052Y-20780D01*
X87014Y-20761D01*
X86671Y-20895D02*
X86671Y-21295D01*
X86671Y-20914D02*
X86633Y-20895D01*
X86557Y-20895D01*
X86519Y-20914D01*
X86500Y-20933D01*
X86480Y-20971D01*
X86480Y-21085D01*
X86500Y-21123D01*
X86519Y-21142D01*
X86557Y-21161D01*
X86633Y-21161D01*
X86671Y-21142D01*
X86366Y-20895D02*
X86214Y-20895D01*
X86309Y-20761D02*
X86309Y-21104D01*
X86290Y-21142D01*
X86252Y-21161D01*
X86214Y-21161D01*
X86023Y-21161D02*
X86061Y-21142D01*
X86080Y-21123D01*
X86100Y-21085D01*
X86100Y-20971D01*
X86080Y-20933D01*
X86061Y-20914D01*
X86023Y-20895D01*
X85966Y-20895D01*
X85928Y-20914D01*
X85909Y-20933D01*
X85890Y-20971D01*
X85890Y-21085D01*
X85909Y-21123D01*
X85928Y-21142D01*
X85966Y-21161D01*
X86023Y-21161D01*
X85719Y-21161D02*
X85719Y-20895D01*
X85719Y-20761D02*
X85738Y-20780D01*
X85719Y-20800D01*
X85700Y-20780D01*
X85719Y-20761D01*
X85719Y-20800D01*
X85547Y-21142D02*
X85509Y-21161D01*
X85433Y-21161D01*
X85395Y-21142D01*
X85376Y-21104D01*
X85376Y-21085D01*
X85395Y-21047D01*
X85433Y-21028D01*
X85490Y-21028D01*
X85528Y-21009D01*
X85547Y-20971D01*
X85547Y-20952D01*
X85528Y-20914D01*
X85490Y-20895D01*
X85433Y-20895D01*
X85395Y-20914D01*
X85147Y-21161D02*
X85185Y-21142D01*
X85204Y-21123D01*
X85223Y-21085D01*
X85223Y-20971D01*
X85204Y-20933D01*
X85185Y-20914D01*
X85147Y-20895D01*
X85090Y-20895D01*
X85052Y-20914D01*
X85033Y-20933D01*
X85014Y-20971D01*
X85014Y-21085D01*
X85033Y-21123D01*
X85052Y-21142D01*
X85090Y-21161D01*
X85147Y-21161D01*
X84785Y-21161D02*
X84823Y-21142D01*
X84842Y-21104D01*
X84842Y-20761D01*
X84461Y-21161D02*
X84461Y-20952D01*
X84480Y-20914D01*
X84519Y-20895D01*
X84595Y-20895D01*
X84633Y-20914D01*
X84461Y-21142D02*
X84500Y-21161D01*
X84595Y-21161D01*
X84633Y-21142D01*
X84652Y-21104D01*
X84652Y-21066D01*
X84633Y-21028D01*
X84595Y-21009D01*
X84500Y-21009D01*
X84461Y-20990D01*
X84328Y-20895D02*
X84176Y-20895D01*
X84271Y-20761D02*
X84271Y-21104D01*
X84252Y-21142D01*
X84214Y-21161D01*
X84176Y-21161D01*
X83985Y-21161D02*
X84023Y-21142D01*
X84042Y-21123D01*
X84061Y-21085D01*
X84061Y-20971D01*
X84042Y-20933D01*
X84023Y-20914D01*
X83985Y-20895D01*
X83928Y-20895D01*
X83890Y-20914D01*
X83871Y-20933D01*
X83852Y-20971D01*
X83852Y-21085D01*
X83871Y-21123D01*
X83890Y-21142D01*
X83928Y-21161D01*
X83985Y-21161D01*
X83680Y-21161D02*
X83680Y-20895D01*
X83680Y-20971D02*
X83661Y-20933D01*
X83642Y-20914D01*
X83604Y-20895D01*
X83566Y-20895D01*
X83166Y-20895D02*
X83071Y-21161D01*
X82976Y-20895D01*
X82614Y-21161D02*
X82842Y-21161D01*
X82728Y-21161D02*
X82728Y-20761D01*
X82766Y-20819D01*
X82804Y-20857D01*
X82842Y-20876D01*
G54D11*
X91494Y-24934D02*
X91494Y-25136D01*
X91505Y-25160D01*
X91517Y-25172D01*
X91541Y-25184D01*
X91577Y-25184D01*
X91601Y-25172D01*
X91494Y-25089D02*
X91517Y-25101D01*
X91565Y-25101D01*
X91589Y-25089D01*
X91601Y-25077D01*
X91613Y-25053D01*
X91613Y-24982D01*
X91601Y-24958D01*
X91589Y-24946D01*
X91565Y-24934D01*
X91517Y-24934D01*
X91494Y-24946D01*
X91375Y-25101D02*
X91375Y-24934D01*
X91375Y-24851D02*
X91386Y-24863D01*
X91375Y-24875D01*
X91363Y-24863D01*
X91375Y-24851D01*
X91375Y-24875D01*
X91291Y-24934D02*
X91196Y-24934D01*
X91255Y-24851D02*
X91255Y-25065D01*
X91244Y-25089D01*
X91220Y-25101D01*
X91196Y-25101D01*
X91113Y-25101D02*
X91113Y-24851D01*
X91005Y-25101D02*
X91005Y-24970D01*
X91017Y-24946D01*
X91041Y-24934D01*
X91077Y-24934D01*
X91101Y-24946D01*
X91113Y-24958D01*
X90779Y-24934D02*
X90779Y-25101D01*
X90886Y-24934D02*
X90886Y-25065D01*
X90875Y-25089D01*
X90851Y-25101D01*
X90815Y-25101D01*
X90791Y-25089D01*
X90779Y-25077D01*
X90660Y-25101D02*
X90660Y-24851D01*
X90660Y-24946D02*
X90636Y-24934D01*
X90589Y-24934D01*
X90565Y-24946D01*
X90553Y-24958D01*
X90541Y-24982D01*
X90541Y-25053D01*
X90553Y-25077D01*
X90565Y-25089D01*
X90589Y-25101D01*
X90636Y-25101D01*
X90660Y-25089D01*
X90434Y-25077D02*
X90422Y-25089D01*
X90434Y-25101D01*
X90446Y-25089D01*
X90434Y-25077D01*
X90434Y-25101D01*
X90208Y-25089D02*
X90232Y-25101D01*
X90279Y-25101D01*
X90303Y-25089D01*
X90315Y-25077D01*
X90327Y-25053D01*
X90327Y-24982D01*
X90315Y-24958D01*
X90303Y-24946D01*
X90279Y-24934D01*
X90232Y-24934D01*
X90208Y-24946D01*
X90065Y-25101D02*
X90089Y-25089D01*
X90101Y-25077D01*
X90113Y-25053D01*
X90113Y-24982D01*
X90101Y-24958D01*
X90089Y-24946D01*
X90065Y-24934D01*
X90029Y-24934D01*
X90005Y-24946D01*
X89994Y-24958D01*
X89982Y-24982D01*
X89982Y-25053D01*
X89994Y-25077D01*
X90005Y-25089D01*
X90029Y-25101D01*
X90065Y-25101D01*
X89875Y-25101D02*
X89875Y-24934D01*
X89875Y-24958D02*
X89863Y-24946D01*
X89839Y-24934D01*
X89803Y-24934D01*
X89779Y-24946D01*
X89767Y-24970D01*
X89767Y-25101D01*
X89767Y-24970D02*
X89755Y-24946D01*
X89732Y-24934D01*
X89696Y-24934D01*
X89672Y-24946D01*
X89660Y-24970D01*
X89660Y-25101D01*
X89363Y-24839D02*
X89577Y-25160D01*
X89279Y-24934D02*
X89279Y-25184D01*
X89279Y-24946D02*
X89255Y-24934D01*
X89208Y-24934D01*
X89184Y-24946D01*
X89172Y-24958D01*
X89160Y-24982D01*
X89160Y-25053D01*
X89172Y-25077D01*
X89184Y-25089D01*
X89208Y-25101D01*
X89255Y-25101D01*
X89279Y-25089D01*
X88958Y-25089D02*
X88982Y-25101D01*
X89029Y-25101D01*
X89053Y-25089D01*
X89065Y-25065D01*
X89065Y-24970D01*
X89053Y-24946D01*
X89029Y-24934D01*
X88982Y-24934D01*
X88958Y-24946D01*
X88946Y-24970D01*
X88946Y-24994D01*
X89065Y-25017D01*
X88839Y-24934D02*
X88839Y-25184D01*
X88839Y-24946D02*
X88815Y-24934D01*
X88767Y-24934D01*
X88744Y-24946D01*
X88732Y-24958D01*
X88720Y-24982D01*
X88720Y-25053D01*
X88732Y-25077D01*
X88744Y-25089D01*
X88767Y-25101D01*
X88815Y-25101D01*
X88839Y-25089D01*
X88505Y-25101D02*
X88505Y-24970D01*
X88517Y-24946D01*
X88541Y-24934D01*
X88589Y-24934D01*
X88613Y-24946D01*
X88505Y-25089D02*
X88529Y-25101D01*
X88589Y-25101D01*
X88613Y-25089D01*
X88625Y-25065D01*
X88625Y-25041D01*
X88613Y-25017D01*
X88589Y-25005D01*
X88529Y-25005D01*
X88505Y-24994D01*
X88398Y-25089D02*
X88374Y-25101D01*
X88327Y-25101D01*
X88303Y-25089D01*
X88291Y-25065D01*
X88291Y-25053D01*
X88303Y-25029D01*
X88327Y-25017D01*
X88363Y-25017D01*
X88386Y-25005D01*
X88398Y-24982D01*
X88398Y-24970D01*
X88386Y-24946D01*
X88363Y-24934D01*
X88327Y-24934D01*
X88303Y-24946D01*
X88148Y-25101D02*
X88172Y-25089D01*
X88184Y-25065D01*
X88184Y-24851D01*
X87946Y-25101D02*
X87946Y-24970D01*
X87958Y-24946D01*
X87982Y-24934D01*
X88029Y-24934D01*
X88053Y-24946D01*
X87946Y-25089D02*
X87970Y-25101D01*
X88029Y-25101D01*
X88053Y-25089D01*
X88065Y-25065D01*
X88065Y-25041D01*
X88053Y-25017D01*
X88029Y-25005D01*
X87970Y-25005D01*
X87946Y-24994D01*
X87827Y-25101D02*
X87827Y-24851D01*
X87827Y-24946D02*
X87803Y-24934D01*
X87755Y-24934D01*
X87732Y-24946D01*
X87720Y-24958D01*
X87708Y-24982D01*
X87708Y-25053D01*
X87720Y-25077D01*
X87732Y-25089D01*
X87755Y-25101D01*
X87803Y-25101D01*
X87827Y-25089D01*
X87613Y-25089D02*
X87589Y-25101D01*
X87541Y-25101D01*
X87517Y-25089D01*
X87505Y-25065D01*
X87505Y-25053D01*
X87517Y-25029D01*
X87541Y-25017D01*
X87577Y-25017D01*
X87601Y-25005D01*
X87613Y-24982D01*
X87613Y-24970D01*
X87601Y-24946D01*
X87577Y-24934D01*
X87541Y-24934D01*
X87517Y-24946D01*
X87220Y-24839D02*
X87434Y-25160D01*
X87029Y-24934D02*
X87029Y-25101D01*
X87089Y-24839D02*
X87148Y-25017D01*
X86994Y-25017D01*
X86898Y-25101D02*
X86898Y-24851D01*
X86755Y-25101D01*
X86755Y-24851D01*
X86660Y-24851D02*
X86505Y-24851D01*
X86589Y-24946D01*
X86553Y-24946D01*
X86529Y-24958D01*
X86517Y-24970D01*
X86505Y-24994D01*
X86505Y-25053D01*
X86517Y-25077D01*
X86529Y-25089D01*
X86553Y-25101D01*
X86624Y-25101D01*
X86648Y-25089D01*
X86660Y-25077D01*
X86279Y-24851D02*
X86398Y-24851D01*
X86410Y-24970D01*
X86398Y-24958D01*
X86374Y-24946D01*
X86315Y-24946D01*
X86291Y-24958D01*
X86279Y-24970D01*
X86267Y-24994D01*
X86267Y-25053D01*
X86279Y-25077D01*
X86291Y-25089D01*
X86315Y-25101D01*
X86374Y-25101D01*
X86398Y-25089D01*
X86410Y-25077D01*
X86160Y-25005D02*
X85970Y-25005D01*
X85886Y-24851D02*
X85744Y-24851D01*
X85815Y-25101D02*
X85815Y-24851D01*
X85696Y-24851D02*
X85553Y-24851D01*
X85624Y-25101D02*
X85624Y-24851D01*
X85351Y-25101D02*
X85470Y-25101D01*
X85470Y-24851D01*
X85267Y-25005D02*
X85077Y-25005D01*
X84970Y-25089D02*
X84934Y-25101D01*
X84874Y-25101D01*
X84851Y-25089D01*
X84839Y-25077D01*
X84827Y-25053D01*
X84827Y-25029D01*
X84839Y-25005D01*
X84851Y-24994D01*
X84874Y-24982D01*
X84922Y-24970D01*
X84946Y-24958D01*
X84958Y-24946D01*
X84970Y-24922D01*
X84970Y-24898D01*
X84958Y-24875D01*
X84946Y-24863D01*
X84922Y-24851D01*
X84863Y-24851D01*
X84827Y-24863D01*
X84624Y-25089D02*
X84648Y-25101D01*
X84696Y-25101D01*
X84720Y-25089D01*
X84732Y-25065D01*
X84732Y-24970D01*
X84720Y-24946D01*
X84696Y-24934D01*
X84648Y-24934D01*
X84624Y-24946D01*
X84613Y-24970D01*
X84613Y-24994D01*
X84732Y-25017D01*
X84505Y-25101D02*
X84505Y-24934D01*
X84505Y-24982D02*
X84494Y-24958D01*
X84482Y-24946D01*
X84458Y-24934D01*
X84434Y-24934D01*
X84351Y-25101D02*
X84351Y-24934D01*
X84351Y-24851D02*
X84363Y-24863D01*
X84351Y-24875D01*
X84339Y-24863D01*
X84351Y-24851D01*
X84351Y-24875D01*
X84124Y-25101D02*
X84124Y-24970D01*
X84136Y-24946D01*
X84160Y-24934D01*
X84208Y-24934D01*
X84232Y-24946D01*
X84124Y-25089D02*
X84148Y-25101D01*
X84208Y-25101D01*
X84232Y-25089D01*
X84244Y-25065D01*
X84244Y-25041D01*
X84232Y-25017D01*
X84208Y-25005D01*
X84148Y-25005D01*
X84124Y-24994D01*
X83970Y-25101D02*
X83994Y-25089D01*
X84005Y-25065D01*
X84005Y-24851D01*
X83874Y-25005D02*
X83684Y-25005D01*
X83517Y-24851D02*
X83470Y-24851D01*
X83446Y-24863D01*
X83422Y-24886D01*
X83410Y-24934D01*
X83410Y-25017D01*
X83422Y-25065D01*
X83446Y-25089D01*
X83470Y-25101D01*
X83517Y-25101D01*
X83541Y-25089D01*
X83565Y-25065D01*
X83577Y-25017D01*
X83577Y-24934D01*
X83565Y-24886D01*
X83541Y-24863D01*
X83517Y-24851D01*
X83303Y-24934D02*
X83303Y-25184D01*
X83303Y-24946D02*
X83279Y-24934D01*
X83232Y-24934D01*
X83208Y-24946D01*
X83196Y-24958D01*
X83184Y-24982D01*
X83184Y-25053D01*
X83196Y-25077D01*
X83208Y-25089D01*
X83232Y-25101D01*
X83279Y-25101D01*
X83303Y-25089D01*
X83113Y-24934D02*
X83017Y-24934D01*
X83077Y-24851D02*
X83077Y-25065D01*
X83065Y-25089D01*
X83041Y-25101D01*
X83017Y-25101D01*
X82898Y-25101D02*
X82922Y-25089D01*
X82934Y-25077D01*
X82946Y-25053D01*
X82946Y-24982D01*
X82934Y-24958D01*
X82922Y-24946D01*
X82898Y-24934D01*
X82863Y-24934D01*
X82839Y-24946D01*
X82827Y-24958D01*
X82815Y-24982D01*
X82815Y-25053D01*
X82827Y-25077D01*
X82839Y-25089D01*
X82863Y-25101D01*
X82898Y-25101D01*
X82708Y-25101D02*
X82708Y-24934D01*
X82708Y-24851D02*
X82720Y-24863D01*
X82708Y-24875D01*
X82696Y-24863D01*
X82708Y-24851D01*
X82708Y-24875D01*
X82601Y-25089D02*
X82577Y-25101D01*
X82529Y-25101D01*
X82505Y-25089D01*
X82494Y-25065D01*
X82494Y-25053D01*
X82505Y-25029D01*
X82529Y-25017D01*
X82565Y-25017D01*
X82589Y-25005D01*
X82601Y-24982D01*
X82601Y-24970D01*
X82589Y-24946D01*
X82565Y-24934D01*
X82529Y-24934D01*
X82505Y-24946D01*
X82351Y-25101D02*
X82374Y-25089D01*
X82386Y-25077D01*
X82398Y-25053D01*
X82398Y-24982D01*
X82386Y-24958D01*
X82374Y-24946D01*
X82351Y-24934D01*
X82315Y-24934D01*
X82291Y-24946D01*
X82279Y-24958D01*
X82267Y-24982D01*
X82267Y-25053D01*
X82279Y-25077D01*
X82291Y-25089D01*
X82315Y-25101D01*
X82351Y-25101D01*
X82124Y-25101D02*
X82148Y-25089D01*
X82160Y-25065D01*
X82160Y-24851D01*
X81922Y-25101D02*
X81922Y-24970D01*
X81934Y-24946D01*
X81958Y-24934D01*
X82005Y-24934D01*
X82029Y-24946D01*
X81922Y-25089D02*
X81946Y-25101D01*
X82005Y-25101D01*
X82029Y-25089D01*
X82041Y-25065D01*
X82041Y-25041D01*
X82029Y-25017D01*
X82005Y-25005D01*
X81946Y-25005D01*
X81922Y-24994D01*
X81839Y-24934D02*
X81744Y-24934D01*
X81803Y-24851D02*
X81803Y-25065D01*
X81791Y-25089D01*
X81767Y-25101D01*
X81744Y-25101D01*
X81624Y-25101D02*
X81648Y-25089D01*
X81660Y-25077D01*
X81672Y-25053D01*
X81672Y-24982D01*
X81660Y-24958D01*
X81648Y-24946D01*
X81624Y-24934D01*
X81589Y-24934D01*
X81565Y-24946D01*
X81553Y-24958D01*
X81541Y-24982D01*
X81541Y-25053D01*
X81553Y-25077D01*
X81565Y-25089D01*
X81589Y-25101D01*
X81624Y-25101D01*
X81434Y-25101D02*
X81434Y-24934D01*
X81434Y-24982D02*
X81422Y-24958D01*
X81410Y-24946D01*
X81386Y-24934D01*
X81363Y-24934D01*
G54D13*
G36*
X83477Y-24457D02*
X83469Y-24453D01*
X83450Y-24441D01*
X83424Y-24424D01*
X83393Y-24403D01*
X83362Y-24382D01*
X83336Y-24365D01*
X83318Y-24353D01*
X83311Y-24349D01*
X83307Y-24350D01*
X83292Y-24358D01*
X83270Y-24369D01*
X83258Y-24375D01*
X83238Y-24384D01*
X83228Y-24386D01*
X83227Y-24383D01*
X83219Y-24368D01*
X83208Y-24342D01*
X83193Y-24308D01*
X83176Y-24268D01*
X83158Y-24225D01*
X83140Y-24181D01*
X83122Y-24139D01*
X83107Y-24101D01*
X83094Y-24071D01*
X83086Y-24049D01*
X83083Y-24040D01*
X83084Y-24038D01*
X83094Y-24029D01*
X83111Y-24016D01*
X83149Y-23985D01*
X83185Y-23939D01*
X83208Y-23887D01*
X83215Y-23829D01*
X83209Y-23776D01*
X83188Y-23725D01*
X83152Y-23678D01*
X83108Y-23644D01*
X83057Y-23622D01*
X83000Y-23615D01*
X82945Y-23621D01*
X82893Y-23642D01*
X82846Y-23677D01*
X82827Y-23700D01*
X82800Y-23747D01*
X82784Y-23797D01*
X82783Y-23809D01*
X82785Y-23865D01*
X82801Y-23918D01*
X82830Y-23965D01*
X82871Y-24004D01*
X82876Y-24008D01*
X82895Y-24022D01*
X82907Y-24031D01*
X82917Y-24039D01*
X82847Y-24209D01*
X82836Y-24236D01*
X82816Y-24282D01*
X82799Y-24322D01*
X82786Y-24354D01*
X82776Y-24375D01*
X82772Y-24384D01*
X82772Y-24384D01*
X82766Y-24385D01*
X82753Y-24380D01*
X82729Y-24369D01*
X82713Y-24361D01*
X82695Y-24352D01*
X82687Y-24349D01*
X82680Y-24353D01*
X82663Y-24364D01*
X82638Y-24381D01*
X82608Y-24401D01*
X82579Y-24421D01*
X82552Y-24439D01*
X82533Y-24451D01*
X82523Y-24456D01*
X82522Y-24456D01*
X82514Y-24451D01*
X82498Y-24439D01*
X82475Y-24417D01*
X82443Y-24385D01*
X82438Y-24380D01*
X82411Y-24352D01*
X82389Y-24329D01*
X82374Y-24313D01*
X82369Y-24306D01*
X82369Y-24306D01*
X82374Y-24296D01*
X82386Y-24277D01*
X82404Y-24250D01*
X82425Y-24219D01*
X82481Y-24137D01*
X82450Y-24060D01*
X82441Y-24037D01*
X82429Y-24008D01*
X82420Y-23988D01*
X82415Y-23979D01*
X82407Y-23976D01*
X82386Y-23971D01*
X82355Y-23964D01*
X82319Y-23958D01*
X82284Y-23951D01*
X82253Y-23945D01*
X82230Y-23941D01*
X82220Y-23939D01*
X82218Y-23937D01*
X82216Y-23932D01*
X82214Y-23922D01*
X82214Y-23903D01*
X82213Y-23873D01*
X82213Y-23829D01*
X82213Y-23825D01*
X82214Y-23783D01*
X82214Y-23750D01*
X82215Y-23729D01*
X82217Y-23721D01*
X82217Y-23721D01*
X82227Y-23718D01*
X82249Y-23714D01*
X82280Y-23707D01*
X82318Y-23700D01*
X82320Y-23700D01*
X82357Y-23693D01*
X82388Y-23686D01*
X82410Y-23681D01*
X82419Y-23678D01*
X82421Y-23676D01*
X82429Y-23661D01*
X82440Y-23638D01*
X82452Y-23610D01*
X82464Y-23581D01*
X82475Y-23554D01*
X82482Y-23535D01*
X82484Y-23526D01*
X82484Y-23526D01*
X82478Y-23517D01*
X82465Y-23497D01*
X82447Y-23471D01*
X82425Y-23439D01*
X82424Y-23436D01*
X82402Y-23405D01*
X82385Y-23378D01*
X82373Y-23359D01*
X82369Y-23351D01*
X82369Y-23350D01*
X82376Y-23341D01*
X82392Y-23323D01*
X82415Y-23299D01*
X82443Y-23271D01*
X82452Y-23263D01*
X82482Y-23233D01*
X82503Y-23213D01*
X82517Y-23203D01*
X82523Y-23200D01*
X82523Y-23201D01*
X82533Y-23206D01*
X82553Y-23219D01*
X82580Y-23238D01*
X82612Y-23259D01*
X82614Y-23261D01*
X82645Y-23282D01*
X82671Y-23300D01*
X82690Y-23312D01*
X82698Y-23317D01*
X82700Y-23317D01*
X82712Y-23313D01*
X82735Y-23306D01*
X82762Y-23295D01*
X82791Y-23283D01*
X82818Y-23272D01*
X82838Y-23263D01*
X82847Y-23258D01*
X82847Y-23257D01*
X82851Y-23246D01*
X82856Y-23222D01*
X82863Y-23190D01*
X82870Y-23151D01*
X82871Y-23145D01*
X82878Y-23108D01*
X82884Y-23077D01*
X82889Y-23055D01*
X82891Y-23046D01*
X82896Y-23045D01*
X82915Y-23044D01*
X82943Y-23043D01*
X82977Y-23043D01*
X83012Y-23043D01*
X83046Y-23044D01*
X83076Y-23045D01*
X83097Y-23046D01*
X83106Y-23048D01*
X83107Y-23049D01*
X83110Y-23060D01*
X83115Y-23084D01*
X83122Y-23116D01*
X83129Y-23155D01*
X83130Y-23162D01*
X83137Y-23199D01*
X83144Y-23230D01*
X83148Y-23251D01*
X83151Y-23259D01*
X83154Y-23261D01*
X83169Y-23268D01*
X83194Y-23278D01*
X83226Y-23291D01*
X83298Y-23320D01*
X83386Y-23259D01*
X83394Y-23254D01*
X83426Y-23232D01*
X83452Y-23215D01*
X83470Y-23203D01*
X83478Y-23199D01*
X83478Y-23199D01*
X83487Y-23207D01*
X83505Y-23223D01*
X83529Y-23247D01*
X83556Y-23274D01*
X83577Y-23295D01*
X83601Y-23320D01*
X83617Y-23336D01*
X83625Y-23347D01*
X83628Y-23354D01*
X83627Y-23358D01*
X83622Y-23367D01*
X83609Y-23386D01*
X83591Y-23413D01*
X83569Y-23444D01*
X83551Y-23471D01*
X83532Y-23500D01*
X83520Y-23521D01*
X83515Y-23532D01*
X83516Y-23536D01*
X83523Y-23553D01*
X83533Y-23580D01*
X83546Y-23611D01*
X83577Y-23681D01*
X83623Y-23689D01*
X83651Y-23695D01*
X83690Y-23702D01*
X83727Y-23709D01*
X83785Y-23721D01*
X83787Y-23933D01*
X83778Y-23937D01*
X83769Y-23940D01*
X83748Y-23944D01*
X83717Y-23950D01*
X83681Y-23957D01*
X83650Y-23963D01*
X83619Y-23969D01*
X83597Y-23973D01*
X83587Y-23975D01*
X83584Y-23979D01*
X83576Y-23994D01*
X83565Y-24018D01*
X83553Y-24047D01*
X83541Y-24076D01*
X83530Y-24104D01*
X83522Y-24125D01*
X83519Y-24136D01*
X83523Y-24144D01*
X83535Y-24162D01*
X83552Y-24188D01*
X83573Y-24219D01*
X83595Y-24250D01*
X83612Y-24277D01*
X83625Y-24296D01*
X83630Y-24304D01*
X83627Y-24310D01*
X83615Y-24325D01*
X83592Y-24349D01*
X83557Y-24384D01*
X83551Y-24389D01*
X83524Y-24416D01*
X83500Y-24437D01*
X83484Y-24452D01*
X83477Y-24457D01*
X83477Y-24457D01*
G37*
M02*
