G04 (created by PCBNEW (2013-07-07 BZR 4022)-stable) date 5/4/2015 1:05:14 AM*
%MOIN*%
G04 Gerber Fmt 3.4, Leading zero omitted, Abs format*
%FSLAX34Y34*%
G01*
G70*
G90*
G04 APERTURE LIST*
%ADD10C,0.00590551*%
%ADD11O,0.059X0.0885*%
%ADD12O,0.059X0.059*%
%ADD13R,0.06X0.06*%
%ADD14C,0.06*%
%ADD15R,0.0885X0.059*%
%ADD16O,0.0885X0.059*%
%ADD17C,0.125984*%
%ADD18C,0.01*%
G04 APERTURE END LIST*
G54D10*
G54D11*
X83500Y-27352D03*
X83000Y-28147D03*
X82500Y-27352D03*
X89500Y-22647D03*
X90000Y-21852D03*
X90500Y-22647D03*
G54D12*
X82000Y-22000D03*
X82000Y-26000D03*
X89000Y-28000D03*
X89000Y-24000D03*
X83000Y-22000D03*
X83000Y-26000D03*
X91000Y-28000D03*
X91000Y-24000D03*
X84000Y-22000D03*
X84000Y-26000D03*
X90000Y-28000D03*
X90000Y-24000D03*
G54D13*
X79500Y-23500D03*
G54D14*
X79500Y-24500D03*
X79500Y-25500D03*
X79500Y-26500D03*
G54D13*
X93500Y-23500D03*
G54D14*
X93500Y-24500D03*
X93500Y-25500D03*
X93500Y-26500D03*
G54D15*
X85147Y-26000D03*
G54D16*
X85147Y-27000D03*
X85147Y-28000D03*
X87852Y-28000D03*
X87852Y-27000D03*
X87852Y-26000D03*
G54D15*
X87852Y-24000D03*
G54D16*
X87852Y-23000D03*
X87852Y-22000D03*
X85147Y-22000D03*
X85147Y-23000D03*
X85147Y-24000D03*
G54D17*
X79500Y-21500D03*
X93500Y-21500D03*
X93500Y-28500D03*
X79500Y-28500D03*
G54D10*
G36*
X85950Y-29200D02*
X85853Y-29200D01*
X85853Y-28000D01*
X85853Y-24000D01*
X85812Y-23791D01*
X85693Y-23614D01*
X85522Y-23500D01*
X85693Y-23385D01*
X85812Y-23208D01*
X85853Y-23000D01*
X85812Y-22791D01*
X85693Y-22614D01*
X85517Y-22496D01*
X85512Y-22495D01*
X85549Y-22484D01*
X85715Y-22350D01*
X85817Y-22162D01*
X85823Y-22134D01*
X85823Y-21865D01*
X85817Y-21837D01*
X85715Y-21649D01*
X85549Y-21515D01*
X85345Y-21455D01*
X85197Y-21455D01*
X85197Y-21950D01*
X85774Y-21950D01*
X85823Y-21865D01*
X85823Y-22134D01*
X85774Y-22050D01*
X85197Y-22050D01*
X85197Y-22057D01*
X85097Y-22057D01*
X85097Y-22050D01*
X85089Y-22050D01*
X85089Y-21950D01*
X85097Y-21950D01*
X85097Y-21455D01*
X84950Y-21455D01*
X84745Y-21515D01*
X84579Y-21649D01*
X84504Y-21787D01*
X84503Y-21780D01*
X84385Y-21603D01*
X84208Y-21485D01*
X84000Y-21444D01*
X83791Y-21485D01*
X83614Y-21603D01*
X83500Y-21775D01*
X83385Y-21603D01*
X83208Y-21485D01*
X83000Y-21444D01*
X82791Y-21485D01*
X82614Y-21603D01*
X82500Y-21775D01*
X82385Y-21603D01*
X82208Y-21485D01*
X82000Y-21444D01*
X81791Y-21485D01*
X81614Y-21603D01*
X81496Y-21780D01*
X81455Y-21989D01*
X81455Y-22010D01*
X81496Y-22219D01*
X81614Y-22396D01*
X81791Y-22514D01*
X82000Y-22555D01*
X82208Y-22514D01*
X82385Y-22396D01*
X82500Y-22224D01*
X82614Y-22396D01*
X82791Y-22514D01*
X83000Y-22555D01*
X83208Y-22514D01*
X83385Y-22396D01*
X83500Y-22224D01*
X83614Y-22396D01*
X83791Y-22514D01*
X84000Y-22555D01*
X84208Y-22514D01*
X84385Y-22396D01*
X84503Y-22219D01*
X84504Y-22212D01*
X84579Y-22350D01*
X84745Y-22484D01*
X84782Y-22495D01*
X84777Y-22496D01*
X84601Y-22614D01*
X84482Y-22791D01*
X84441Y-23000D01*
X84482Y-23208D01*
X84601Y-23385D01*
X84772Y-23500D01*
X84601Y-23614D01*
X84482Y-23791D01*
X84441Y-24000D01*
X84482Y-24208D01*
X84601Y-24385D01*
X84777Y-24503D01*
X84986Y-24545D01*
X85308Y-24545D01*
X85517Y-24503D01*
X85693Y-24385D01*
X85812Y-24208D01*
X85853Y-24000D01*
X85853Y-28000D01*
X85840Y-27932D01*
X85840Y-26245D01*
X85840Y-25655D01*
X85802Y-25563D01*
X85731Y-25493D01*
X85639Y-25455D01*
X85540Y-25454D01*
X84655Y-25454D01*
X84563Y-25492D01*
X84493Y-25563D01*
X84455Y-25655D01*
X84454Y-25708D01*
X84385Y-25603D01*
X84208Y-25485D01*
X84000Y-25444D01*
X83791Y-25485D01*
X83614Y-25603D01*
X83500Y-25775D01*
X83385Y-25603D01*
X83208Y-25485D01*
X83000Y-25444D01*
X82791Y-25485D01*
X82614Y-25603D01*
X82500Y-25775D01*
X82385Y-25603D01*
X82208Y-25485D01*
X82000Y-25444D01*
X81791Y-25485D01*
X81614Y-25603D01*
X81496Y-25780D01*
X81455Y-25989D01*
X81455Y-26010D01*
X81496Y-26219D01*
X81614Y-26396D01*
X81791Y-26514D01*
X82000Y-26555D01*
X82208Y-26514D01*
X82385Y-26396D01*
X82500Y-26224D01*
X82614Y-26396D01*
X82791Y-26514D01*
X83000Y-26555D01*
X83208Y-26514D01*
X83385Y-26396D01*
X83500Y-26224D01*
X83614Y-26396D01*
X83791Y-26514D01*
X84000Y-26555D01*
X84208Y-26514D01*
X84385Y-26396D01*
X84454Y-26291D01*
X84454Y-26344D01*
X84492Y-26436D01*
X84563Y-26506D01*
X84655Y-26544D01*
X84708Y-26545D01*
X84579Y-26649D01*
X84477Y-26837D01*
X84471Y-26865D01*
X84520Y-26950D01*
X85097Y-26950D01*
X85097Y-26942D01*
X85197Y-26942D01*
X85197Y-26950D01*
X85774Y-26950D01*
X85823Y-26865D01*
X85817Y-26837D01*
X85715Y-26649D01*
X85586Y-26545D01*
X85639Y-26545D01*
X85731Y-26507D01*
X85801Y-26436D01*
X85839Y-26344D01*
X85840Y-26245D01*
X85840Y-27932D01*
X85812Y-27791D01*
X85693Y-27614D01*
X85517Y-27496D01*
X85512Y-27495D01*
X85549Y-27484D01*
X85715Y-27350D01*
X85817Y-27162D01*
X85823Y-27134D01*
X85774Y-27050D01*
X85197Y-27050D01*
X85197Y-27057D01*
X85097Y-27057D01*
X85097Y-27050D01*
X84520Y-27050D01*
X84471Y-27134D01*
X84477Y-27162D01*
X84579Y-27350D01*
X84745Y-27484D01*
X84782Y-27495D01*
X84777Y-27496D01*
X84601Y-27614D01*
X84482Y-27791D01*
X84441Y-28000D01*
X84482Y-28208D01*
X84601Y-28385D01*
X84777Y-28503D01*
X84986Y-28545D01*
X85308Y-28545D01*
X85517Y-28503D01*
X85693Y-28385D01*
X85812Y-28208D01*
X85853Y-28000D01*
X85853Y-29200D01*
X84045Y-29200D01*
X84045Y-27513D01*
X84045Y-27191D01*
X84003Y-26982D01*
X83885Y-26806D01*
X83708Y-26687D01*
X83500Y-26646D01*
X83291Y-26687D01*
X83114Y-26806D01*
X83000Y-26977D01*
X82885Y-26806D01*
X82708Y-26687D01*
X82500Y-26646D01*
X82291Y-26687D01*
X82114Y-26806D01*
X81996Y-26982D01*
X81955Y-27191D01*
X81955Y-27513D01*
X81996Y-27722D01*
X82114Y-27898D01*
X82291Y-28017D01*
X82455Y-28049D01*
X82455Y-28308D01*
X82496Y-28517D01*
X82614Y-28693D01*
X82791Y-28812D01*
X83000Y-28853D01*
X83208Y-28812D01*
X83385Y-28693D01*
X83503Y-28517D01*
X83545Y-28308D01*
X83545Y-28049D01*
X83708Y-28017D01*
X83885Y-27898D01*
X84003Y-27722D01*
X84045Y-27513D01*
X84045Y-29200D01*
X80044Y-29200D01*
X80245Y-28999D01*
X80379Y-28675D01*
X80380Y-28325D01*
X80246Y-28002D01*
X80054Y-27810D01*
X80054Y-26581D01*
X80050Y-26488D01*
X80050Y-25391D01*
X79966Y-25188D01*
X79811Y-25034D01*
X79730Y-25000D01*
X79811Y-24966D01*
X79965Y-24811D01*
X80049Y-24609D01*
X80050Y-24391D01*
X79966Y-24188D01*
X79827Y-24050D01*
X79849Y-24050D01*
X79941Y-24012D01*
X80011Y-23941D01*
X80049Y-23849D01*
X80050Y-23750D01*
X80050Y-23150D01*
X80012Y-23058D01*
X79941Y-22988D01*
X79849Y-22950D01*
X79750Y-22949D01*
X79150Y-22949D01*
X79058Y-22987D01*
X78988Y-23058D01*
X78950Y-23150D01*
X78949Y-23249D01*
X78949Y-23849D01*
X78987Y-23941D01*
X79058Y-24011D01*
X79150Y-24049D01*
X79172Y-24049D01*
X79034Y-24188D01*
X78950Y-24390D01*
X78949Y-24608D01*
X79033Y-24811D01*
X79188Y-24965D01*
X79269Y-24999D01*
X79188Y-25033D01*
X79034Y-25188D01*
X78950Y-25390D01*
X78949Y-25608D01*
X79033Y-25811D01*
X79188Y-25965D01*
X79263Y-25997D01*
X79212Y-26018D01*
X79184Y-26114D01*
X79500Y-26429D01*
X79815Y-26114D01*
X79787Y-26018D01*
X79732Y-25999D01*
X79811Y-25966D01*
X79965Y-25811D01*
X80049Y-25609D01*
X80050Y-25391D01*
X80050Y-26488D01*
X80043Y-26363D01*
X79981Y-26212D01*
X79885Y-26184D01*
X79570Y-26500D01*
X79885Y-26815D01*
X79981Y-26787D01*
X80054Y-26581D01*
X80054Y-27810D01*
X79999Y-27754D01*
X79815Y-27678D01*
X79815Y-26885D01*
X79500Y-26570D01*
X79429Y-26641D01*
X79429Y-26500D01*
X79114Y-26184D01*
X79018Y-26212D01*
X78945Y-26418D01*
X78956Y-26636D01*
X79018Y-26787D01*
X79114Y-26815D01*
X79429Y-26500D01*
X79429Y-26641D01*
X79184Y-26885D01*
X79212Y-26981D01*
X79418Y-27054D01*
X79636Y-27043D01*
X79787Y-26981D01*
X79815Y-26885D01*
X79815Y-27678D01*
X79675Y-27620D01*
X79325Y-27619D01*
X79002Y-27753D01*
X78800Y-27955D01*
X78800Y-22044D01*
X79000Y-22245D01*
X79324Y-22379D01*
X79674Y-22380D01*
X79997Y-22246D01*
X80245Y-21999D01*
X80379Y-21675D01*
X80380Y-21325D01*
X80246Y-21002D01*
X80044Y-20800D01*
X85950Y-20800D01*
X85950Y-29200D01*
X85950Y-29200D01*
G37*
G54D18*
X85950Y-29200D02*
X85853Y-29200D01*
X85853Y-28000D01*
X85853Y-24000D01*
X85812Y-23791D01*
X85693Y-23614D01*
X85522Y-23500D01*
X85693Y-23385D01*
X85812Y-23208D01*
X85853Y-23000D01*
X85812Y-22791D01*
X85693Y-22614D01*
X85517Y-22496D01*
X85512Y-22495D01*
X85549Y-22484D01*
X85715Y-22350D01*
X85817Y-22162D01*
X85823Y-22134D01*
X85823Y-21865D01*
X85817Y-21837D01*
X85715Y-21649D01*
X85549Y-21515D01*
X85345Y-21455D01*
X85197Y-21455D01*
X85197Y-21950D01*
X85774Y-21950D01*
X85823Y-21865D01*
X85823Y-22134D01*
X85774Y-22050D01*
X85197Y-22050D01*
X85197Y-22057D01*
X85097Y-22057D01*
X85097Y-22050D01*
X85089Y-22050D01*
X85089Y-21950D01*
X85097Y-21950D01*
X85097Y-21455D01*
X84950Y-21455D01*
X84745Y-21515D01*
X84579Y-21649D01*
X84504Y-21787D01*
X84503Y-21780D01*
X84385Y-21603D01*
X84208Y-21485D01*
X84000Y-21444D01*
X83791Y-21485D01*
X83614Y-21603D01*
X83500Y-21775D01*
X83385Y-21603D01*
X83208Y-21485D01*
X83000Y-21444D01*
X82791Y-21485D01*
X82614Y-21603D01*
X82500Y-21775D01*
X82385Y-21603D01*
X82208Y-21485D01*
X82000Y-21444D01*
X81791Y-21485D01*
X81614Y-21603D01*
X81496Y-21780D01*
X81455Y-21989D01*
X81455Y-22010D01*
X81496Y-22219D01*
X81614Y-22396D01*
X81791Y-22514D01*
X82000Y-22555D01*
X82208Y-22514D01*
X82385Y-22396D01*
X82500Y-22224D01*
X82614Y-22396D01*
X82791Y-22514D01*
X83000Y-22555D01*
X83208Y-22514D01*
X83385Y-22396D01*
X83500Y-22224D01*
X83614Y-22396D01*
X83791Y-22514D01*
X84000Y-22555D01*
X84208Y-22514D01*
X84385Y-22396D01*
X84503Y-22219D01*
X84504Y-22212D01*
X84579Y-22350D01*
X84745Y-22484D01*
X84782Y-22495D01*
X84777Y-22496D01*
X84601Y-22614D01*
X84482Y-22791D01*
X84441Y-23000D01*
X84482Y-23208D01*
X84601Y-23385D01*
X84772Y-23500D01*
X84601Y-23614D01*
X84482Y-23791D01*
X84441Y-24000D01*
X84482Y-24208D01*
X84601Y-24385D01*
X84777Y-24503D01*
X84986Y-24545D01*
X85308Y-24545D01*
X85517Y-24503D01*
X85693Y-24385D01*
X85812Y-24208D01*
X85853Y-24000D01*
X85853Y-28000D01*
X85840Y-27932D01*
X85840Y-26245D01*
X85840Y-25655D01*
X85802Y-25563D01*
X85731Y-25493D01*
X85639Y-25455D01*
X85540Y-25454D01*
X84655Y-25454D01*
X84563Y-25492D01*
X84493Y-25563D01*
X84455Y-25655D01*
X84454Y-25708D01*
X84385Y-25603D01*
X84208Y-25485D01*
X84000Y-25444D01*
X83791Y-25485D01*
X83614Y-25603D01*
X83500Y-25775D01*
X83385Y-25603D01*
X83208Y-25485D01*
X83000Y-25444D01*
X82791Y-25485D01*
X82614Y-25603D01*
X82500Y-25775D01*
X82385Y-25603D01*
X82208Y-25485D01*
X82000Y-25444D01*
X81791Y-25485D01*
X81614Y-25603D01*
X81496Y-25780D01*
X81455Y-25989D01*
X81455Y-26010D01*
X81496Y-26219D01*
X81614Y-26396D01*
X81791Y-26514D01*
X82000Y-26555D01*
X82208Y-26514D01*
X82385Y-26396D01*
X82500Y-26224D01*
X82614Y-26396D01*
X82791Y-26514D01*
X83000Y-26555D01*
X83208Y-26514D01*
X83385Y-26396D01*
X83500Y-26224D01*
X83614Y-26396D01*
X83791Y-26514D01*
X84000Y-26555D01*
X84208Y-26514D01*
X84385Y-26396D01*
X84454Y-26291D01*
X84454Y-26344D01*
X84492Y-26436D01*
X84563Y-26506D01*
X84655Y-26544D01*
X84708Y-26545D01*
X84579Y-26649D01*
X84477Y-26837D01*
X84471Y-26865D01*
X84520Y-26950D01*
X85097Y-26950D01*
X85097Y-26942D01*
X85197Y-26942D01*
X85197Y-26950D01*
X85774Y-26950D01*
X85823Y-26865D01*
X85817Y-26837D01*
X85715Y-26649D01*
X85586Y-26545D01*
X85639Y-26545D01*
X85731Y-26507D01*
X85801Y-26436D01*
X85839Y-26344D01*
X85840Y-26245D01*
X85840Y-27932D01*
X85812Y-27791D01*
X85693Y-27614D01*
X85517Y-27496D01*
X85512Y-27495D01*
X85549Y-27484D01*
X85715Y-27350D01*
X85817Y-27162D01*
X85823Y-27134D01*
X85774Y-27050D01*
X85197Y-27050D01*
X85197Y-27057D01*
X85097Y-27057D01*
X85097Y-27050D01*
X84520Y-27050D01*
X84471Y-27134D01*
X84477Y-27162D01*
X84579Y-27350D01*
X84745Y-27484D01*
X84782Y-27495D01*
X84777Y-27496D01*
X84601Y-27614D01*
X84482Y-27791D01*
X84441Y-28000D01*
X84482Y-28208D01*
X84601Y-28385D01*
X84777Y-28503D01*
X84986Y-28545D01*
X85308Y-28545D01*
X85517Y-28503D01*
X85693Y-28385D01*
X85812Y-28208D01*
X85853Y-28000D01*
X85853Y-29200D01*
X84045Y-29200D01*
X84045Y-27513D01*
X84045Y-27191D01*
X84003Y-26982D01*
X83885Y-26806D01*
X83708Y-26687D01*
X83500Y-26646D01*
X83291Y-26687D01*
X83114Y-26806D01*
X83000Y-26977D01*
X82885Y-26806D01*
X82708Y-26687D01*
X82500Y-26646D01*
X82291Y-26687D01*
X82114Y-26806D01*
X81996Y-26982D01*
X81955Y-27191D01*
X81955Y-27513D01*
X81996Y-27722D01*
X82114Y-27898D01*
X82291Y-28017D01*
X82455Y-28049D01*
X82455Y-28308D01*
X82496Y-28517D01*
X82614Y-28693D01*
X82791Y-28812D01*
X83000Y-28853D01*
X83208Y-28812D01*
X83385Y-28693D01*
X83503Y-28517D01*
X83545Y-28308D01*
X83545Y-28049D01*
X83708Y-28017D01*
X83885Y-27898D01*
X84003Y-27722D01*
X84045Y-27513D01*
X84045Y-29200D01*
X80044Y-29200D01*
X80245Y-28999D01*
X80379Y-28675D01*
X80380Y-28325D01*
X80246Y-28002D01*
X80054Y-27810D01*
X80054Y-26581D01*
X80050Y-26488D01*
X80050Y-25391D01*
X79966Y-25188D01*
X79811Y-25034D01*
X79730Y-25000D01*
X79811Y-24966D01*
X79965Y-24811D01*
X80049Y-24609D01*
X80050Y-24391D01*
X79966Y-24188D01*
X79827Y-24050D01*
X79849Y-24050D01*
X79941Y-24012D01*
X80011Y-23941D01*
X80049Y-23849D01*
X80050Y-23750D01*
X80050Y-23150D01*
X80012Y-23058D01*
X79941Y-22988D01*
X79849Y-22950D01*
X79750Y-22949D01*
X79150Y-22949D01*
X79058Y-22987D01*
X78988Y-23058D01*
X78950Y-23150D01*
X78949Y-23249D01*
X78949Y-23849D01*
X78987Y-23941D01*
X79058Y-24011D01*
X79150Y-24049D01*
X79172Y-24049D01*
X79034Y-24188D01*
X78950Y-24390D01*
X78949Y-24608D01*
X79033Y-24811D01*
X79188Y-24965D01*
X79269Y-24999D01*
X79188Y-25033D01*
X79034Y-25188D01*
X78950Y-25390D01*
X78949Y-25608D01*
X79033Y-25811D01*
X79188Y-25965D01*
X79263Y-25997D01*
X79212Y-26018D01*
X79184Y-26114D01*
X79500Y-26429D01*
X79815Y-26114D01*
X79787Y-26018D01*
X79732Y-25999D01*
X79811Y-25966D01*
X79965Y-25811D01*
X80049Y-25609D01*
X80050Y-25391D01*
X80050Y-26488D01*
X80043Y-26363D01*
X79981Y-26212D01*
X79885Y-26184D01*
X79570Y-26500D01*
X79885Y-26815D01*
X79981Y-26787D01*
X80054Y-26581D01*
X80054Y-27810D01*
X79999Y-27754D01*
X79815Y-27678D01*
X79815Y-26885D01*
X79500Y-26570D01*
X79429Y-26641D01*
X79429Y-26500D01*
X79114Y-26184D01*
X79018Y-26212D01*
X78945Y-26418D01*
X78956Y-26636D01*
X79018Y-26787D01*
X79114Y-26815D01*
X79429Y-26500D01*
X79429Y-26641D01*
X79184Y-26885D01*
X79212Y-26981D01*
X79418Y-27054D01*
X79636Y-27043D01*
X79787Y-26981D01*
X79815Y-26885D01*
X79815Y-27678D01*
X79675Y-27620D01*
X79325Y-27619D01*
X79002Y-27753D01*
X78800Y-27955D01*
X78800Y-22044D01*
X79000Y-22245D01*
X79324Y-22379D01*
X79674Y-22380D01*
X79997Y-22246D01*
X80245Y-21999D01*
X80379Y-21675D01*
X80380Y-21325D01*
X80246Y-21002D01*
X80044Y-20800D01*
X85950Y-20800D01*
X85950Y-29200D01*
G54D10*
G36*
X94200Y-27955D02*
X94054Y-27810D01*
X94054Y-26581D01*
X94050Y-26488D01*
X94050Y-25391D01*
X93966Y-25188D01*
X93811Y-25034D01*
X93730Y-25000D01*
X93811Y-24966D01*
X93965Y-24811D01*
X94049Y-24609D01*
X94050Y-24391D01*
X93966Y-24188D01*
X93827Y-24050D01*
X93849Y-24050D01*
X93941Y-24012D01*
X94011Y-23941D01*
X94049Y-23849D01*
X94050Y-23750D01*
X94050Y-23150D01*
X94012Y-23058D01*
X93941Y-22988D01*
X93849Y-22950D01*
X93750Y-22949D01*
X93150Y-22949D01*
X93058Y-22987D01*
X92988Y-23058D01*
X92950Y-23150D01*
X92949Y-23249D01*
X92949Y-23849D01*
X92987Y-23941D01*
X93058Y-24011D01*
X93150Y-24049D01*
X93172Y-24049D01*
X93034Y-24188D01*
X92950Y-24390D01*
X92949Y-24608D01*
X93033Y-24811D01*
X93188Y-24965D01*
X93269Y-24999D01*
X93188Y-25033D01*
X93034Y-25188D01*
X92950Y-25390D01*
X92949Y-25608D01*
X93033Y-25811D01*
X93188Y-25965D01*
X93263Y-25997D01*
X93212Y-26018D01*
X93184Y-26114D01*
X93500Y-26429D01*
X93815Y-26114D01*
X93787Y-26018D01*
X93732Y-25999D01*
X93811Y-25966D01*
X93965Y-25811D01*
X94049Y-25609D01*
X94050Y-25391D01*
X94050Y-26488D01*
X94043Y-26363D01*
X93981Y-26212D01*
X93885Y-26184D01*
X93570Y-26500D01*
X93885Y-26815D01*
X93981Y-26787D01*
X94054Y-26581D01*
X94054Y-27810D01*
X93999Y-27754D01*
X93815Y-27678D01*
X93815Y-26885D01*
X93500Y-26570D01*
X93429Y-26641D01*
X93429Y-26500D01*
X93114Y-26184D01*
X93018Y-26212D01*
X92945Y-26418D01*
X92956Y-26636D01*
X93018Y-26787D01*
X93114Y-26815D01*
X93429Y-26500D01*
X93429Y-26641D01*
X93184Y-26885D01*
X93212Y-26981D01*
X93418Y-27054D01*
X93636Y-27043D01*
X93787Y-26981D01*
X93815Y-26885D01*
X93815Y-27678D01*
X93675Y-27620D01*
X93325Y-27619D01*
X93002Y-27753D01*
X92754Y-28000D01*
X92620Y-28324D01*
X92619Y-28674D01*
X92753Y-28997D01*
X92955Y-29200D01*
X91545Y-29200D01*
X91545Y-28010D01*
X91545Y-27989D01*
X91545Y-24010D01*
X91545Y-23989D01*
X91503Y-23780D01*
X91385Y-23603D01*
X91208Y-23485D01*
X91045Y-23453D01*
X91045Y-22808D01*
X91045Y-22486D01*
X91003Y-22277D01*
X90885Y-22101D01*
X90708Y-21982D01*
X90545Y-21950D01*
X90545Y-21691D01*
X90503Y-21482D01*
X90385Y-21306D01*
X90208Y-21187D01*
X90000Y-21146D01*
X89791Y-21187D01*
X89614Y-21306D01*
X89496Y-21482D01*
X89455Y-21691D01*
X89455Y-21950D01*
X89291Y-21982D01*
X89114Y-22101D01*
X88996Y-22277D01*
X88955Y-22486D01*
X88955Y-22808D01*
X88996Y-23017D01*
X89114Y-23193D01*
X89291Y-23312D01*
X89500Y-23353D01*
X89708Y-23312D01*
X89885Y-23193D01*
X90000Y-23022D01*
X90114Y-23193D01*
X90291Y-23312D01*
X90500Y-23353D01*
X90708Y-23312D01*
X90885Y-23193D01*
X91003Y-23017D01*
X91045Y-22808D01*
X91045Y-23453D01*
X91000Y-23444D01*
X90791Y-23485D01*
X90614Y-23603D01*
X90500Y-23775D01*
X90385Y-23603D01*
X90208Y-23485D01*
X90000Y-23444D01*
X89791Y-23485D01*
X89614Y-23603D01*
X89500Y-23775D01*
X89385Y-23603D01*
X89208Y-23485D01*
X89000Y-23444D01*
X88791Y-23485D01*
X88614Y-23603D01*
X88558Y-23687D01*
X88558Y-22000D01*
X88517Y-21791D01*
X88398Y-21614D01*
X88222Y-21496D01*
X88013Y-21455D01*
X87691Y-21455D01*
X87482Y-21496D01*
X87306Y-21614D01*
X87187Y-21791D01*
X87146Y-22000D01*
X87187Y-22208D01*
X87306Y-22385D01*
X87482Y-22503D01*
X87487Y-22504D01*
X87450Y-22515D01*
X87284Y-22649D01*
X87182Y-22837D01*
X87176Y-22865D01*
X87225Y-22950D01*
X87802Y-22950D01*
X87802Y-22942D01*
X87902Y-22942D01*
X87902Y-22950D01*
X88479Y-22950D01*
X88528Y-22865D01*
X88522Y-22837D01*
X88420Y-22649D01*
X88254Y-22515D01*
X88217Y-22504D01*
X88222Y-22503D01*
X88398Y-22385D01*
X88517Y-22208D01*
X88558Y-22000D01*
X88558Y-23687D01*
X88545Y-23708D01*
X88545Y-23655D01*
X88507Y-23563D01*
X88436Y-23493D01*
X88344Y-23455D01*
X88291Y-23454D01*
X88420Y-23350D01*
X88522Y-23162D01*
X88528Y-23134D01*
X88479Y-23050D01*
X87902Y-23050D01*
X87902Y-23057D01*
X87802Y-23057D01*
X87802Y-23050D01*
X87225Y-23050D01*
X87176Y-23134D01*
X87182Y-23162D01*
X87284Y-23350D01*
X87413Y-23454D01*
X87360Y-23454D01*
X87268Y-23492D01*
X87198Y-23563D01*
X87160Y-23655D01*
X87159Y-23754D01*
X87159Y-24344D01*
X87197Y-24436D01*
X87268Y-24506D01*
X87360Y-24544D01*
X87459Y-24545D01*
X88344Y-24545D01*
X88436Y-24507D01*
X88506Y-24436D01*
X88544Y-24344D01*
X88545Y-24291D01*
X88614Y-24396D01*
X88791Y-24514D01*
X89000Y-24555D01*
X89208Y-24514D01*
X89385Y-24396D01*
X89500Y-24224D01*
X89614Y-24396D01*
X89791Y-24514D01*
X90000Y-24555D01*
X90208Y-24514D01*
X90385Y-24396D01*
X90500Y-24224D01*
X90614Y-24396D01*
X90791Y-24514D01*
X91000Y-24555D01*
X91208Y-24514D01*
X91385Y-24396D01*
X91503Y-24219D01*
X91545Y-24010D01*
X91545Y-27989D01*
X91503Y-27780D01*
X91385Y-27603D01*
X91208Y-27485D01*
X91000Y-27444D01*
X90791Y-27485D01*
X90614Y-27603D01*
X90500Y-27775D01*
X90385Y-27603D01*
X90208Y-27485D01*
X90000Y-27444D01*
X89791Y-27485D01*
X89614Y-27603D01*
X89500Y-27775D01*
X89385Y-27603D01*
X89208Y-27485D01*
X89000Y-27444D01*
X88791Y-27485D01*
X88614Y-27603D01*
X88496Y-27780D01*
X88495Y-27787D01*
X88420Y-27649D01*
X88254Y-27515D01*
X88217Y-27504D01*
X88222Y-27503D01*
X88398Y-27385D01*
X88517Y-27208D01*
X88558Y-27000D01*
X88517Y-26791D01*
X88398Y-26614D01*
X88227Y-26500D01*
X88398Y-26385D01*
X88517Y-26208D01*
X88558Y-26000D01*
X88517Y-25791D01*
X88398Y-25614D01*
X88222Y-25496D01*
X88013Y-25455D01*
X87691Y-25455D01*
X87482Y-25496D01*
X87306Y-25614D01*
X87187Y-25791D01*
X87146Y-26000D01*
X87187Y-26208D01*
X87306Y-26385D01*
X87477Y-26500D01*
X87306Y-26614D01*
X87187Y-26791D01*
X87146Y-27000D01*
X87187Y-27208D01*
X87306Y-27385D01*
X87482Y-27503D01*
X87487Y-27504D01*
X87450Y-27515D01*
X87284Y-27649D01*
X87182Y-27837D01*
X87176Y-27865D01*
X87225Y-27950D01*
X87802Y-27950D01*
X87802Y-27942D01*
X87902Y-27942D01*
X87902Y-27950D01*
X87910Y-27950D01*
X87910Y-28050D01*
X87902Y-28050D01*
X87902Y-28545D01*
X88050Y-28545D01*
X88254Y-28484D01*
X88420Y-28350D01*
X88495Y-28212D01*
X88496Y-28219D01*
X88614Y-28396D01*
X88791Y-28514D01*
X89000Y-28555D01*
X89208Y-28514D01*
X89385Y-28396D01*
X89500Y-28224D01*
X89614Y-28396D01*
X89791Y-28514D01*
X90000Y-28555D01*
X90208Y-28514D01*
X90385Y-28396D01*
X90500Y-28224D01*
X90614Y-28396D01*
X90791Y-28514D01*
X91000Y-28555D01*
X91208Y-28514D01*
X91385Y-28396D01*
X91503Y-28219D01*
X91545Y-28010D01*
X91545Y-29200D01*
X87802Y-29200D01*
X87802Y-28545D01*
X87802Y-28050D01*
X87225Y-28050D01*
X87176Y-28134D01*
X87182Y-28162D01*
X87284Y-28350D01*
X87450Y-28484D01*
X87655Y-28545D01*
X87802Y-28545D01*
X87802Y-29200D01*
X87050Y-29200D01*
X87050Y-20800D01*
X92955Y-20800D01*
X92754Y-21000D01*
X92620Y-21324D01*
X92619Y-21674D01*
X92753Y-21997D01*
X93000Y-22245D01*
X93324Y-22379D01*
X93674Y-22380D01*
X93997Y-22246D01*
X94200Y-22044D01*
X94200Y-27955D01*
X94200Y-27955D01*
G37*
G54D18*
X94200Y-27955D02*
X94054Y-27810D01*
X94054Y-26581D01*
X94050Y-26488D01*
X94050Y-25391D01*
X93966Y-25188D01*
X93811Y-25034D01*
X93730Y-25000D01*
X93811Y-24966D01*
X93965Y-24811D01*
X94049Y-24609D01*
X94050Y-24391D01*
X93966Y-24188D01*
X93827Y-24050D01*
X93849Y-24050D01*
X93941Y-24012D01*
X94011Y-23941D01*
X94049Y-23849D01*
X94050Y-23750D01*
X94050Y-23150D01*
X94012Y-23058D01*
X93941Y-22988D01*
X93849Y-22950D01*
X93750Y-22949D01*
X93150Y-22949D01*
X93058Y-22987D01*
X92988Y-23058D01*
X92950Y-23150D01*
X92949Y-23249D01*
X92949Y-23849D01*
X92987Y-23941D01*
X93058Y-24011D01*
X93150Y-24049D01*
X93172Y-24049D01*
X93034Y-24188D01*
X92950Y-24390D01*
X92949Y-24608D01*
X93033Y-24811D01*
X93188Y-24965D01*
X93269Y-24999D01*
X93188Y-25033D01*
X93034Y-25188D01*
X92950Y-25390D01*
X92949Y-25608D01*
X93033Y-25811D01*
X93188Y-25965D01*
X93263Y-25997D01*
X93212Y-26018D01*
X93184Y-26114D01*
X93500Y-26429D01*
X93815Y-26114D01*
X93787Y-26018D01*
X93732Y-25999D01*
X93811Y-25966D01*
X93965Y-25811D01*
X94049Y-25609D01*
X94050Y-25391D01*
X94050Y-26488D01*
X94043Y-26363D01*
X93981Y-26212D01*
X93885Y-26184D01*
X93570Y-26500D01*
X93885Y-26815D01*
X93981Y-26787D01*
X94054Y-26581D01*
X94054Y-27810D01*
X93999Y-27754D01*
X93815Y-27678D01*
X93815Y-26885D01*
X93500Y-26570D01*
X93429Y-26641D01*
X93429Y-26500D01*
X93114Y-26184D01*
X93018Y-26212D01*
X92945Y-26418D01*
X92956Y-26636D01*
X93018Y-26787D01*
X93114Y-26815D01*
X93429Y-26500D01*
X93429Y-26641D01*
X93184Y-26885D01*
X93212Y-26981D01*
X93418Y-27054D01*
X93636Y-27043D01*
X93787Y-26981D01*
X93815Y-26885D01*
X93815Y-27678D01*
X93675Y-27620D01*
X93325Y-27619D01*
X93002Y-27753D01*
X92754Y-28000D01*
X92620Y-28324D01*
X92619Y-28674D01*
X92753Y-28997D01*
X92955Y-29200D01*
X91545Y-29200D01*
X91545Y-28010D01*
X91545Y-27989D01*
X91545Y-24010D01*
X91545Y-23989D01*
X91503Y-23780D01*
X91385Y-23603D01*
X91208Y-23485D01*
X91045Y-23453D01*
X91045Y-22808D01*
X91045Y-22486D01*
X91003Y-22277D01*
X90885Y-22101D01*
X90708Y-21982D01*
X90545Y-21950D01*
X90545Y-21691D01*
X90503Y-21482D01*
X90385Y-21306D01*
X90208Y-21187D01*
X90000Y-21146D01*
X89791Y-21187D01*
X89614Y-21306D01*
X89496Y-21482D01*
X89455Y-21691D01*
X89455Y-21950D01*
X89291Y-21982D01*
X89114Y-22101D01*
X88996Y-22277D01*
X88955Y-22486D01*
X88955Y-22808D01*
X88996Y-23017D01*
X89114Y-23193D01*
X89291Y-23312D01*
X89500Y-23353D01*
X89708Y-23312D01*
X89885Y-23193D01*
X90000Y-23022D01*
X90114Y-23193D01*
X90291Y-23312D01*
X90500Y-23353D01*
X90708Y-23312D01*
X90885Y-23193D01*
X91003Y-23017D01*
X91045Y-22808D01*
X91045Y-23453D01*
X91000Y-23444D01*
X90791Y-23485D01*
X90614Y-23603D01*
X90500Y-23775D01*
X90385Y-23603D01*
X90208Y-23485D01*
X90000Y-23444D01*
X89791Y-23485D01*
X89614Y-23603D01*
X89500Y-23775D01*
X89385Y-23603D01*
X89208Y-23485D01*
X89000Y-23444D01*
X88791Y-23485D01*
X88614Y-23603D01*
X88558Y-23687D01*
X88558Y-22000D01*
X88517Y-21791D01*
X88398Y-21614D01*
X88222Y-21496D01*
X88013Y-21455D01*
X87691Y-21455D01*
X87482Y-21496D01*
X87306Y-21614D01*
X87187Y-21791D01*
X87146Y-22000D01*
X87187Y-22208D01*
X87306Y-22385D01*
X87482Y-22503D01*
X87487Y-22504D01*
X87450Y-22515D01*
X87284Y-22649D01*
X87182Y-22837D01*
X87176Y-22865D01*
X87225Y-22950D01*
X87802Y-22950D01*
X87802Y-22942D01*
X87902Y-22942D01*
X87902Y-22950D01*
X88479Y-22950D01*
X88528Y-22865D01*
X88522Y-22837D01*
X88420Y-22649D01*
X88254Y-22515D01*
X88217Y-22504D01*
X88222Y-22503D01*
X88398Y-22385D01*
X88517Y-22208D01*
X88558Y-22000D01*
X88558Y-23687D01*
X88545Y-23708D01*
X88545Y-23655D01*
X88507Y-23563D01*
X88436Y-23493D01*
X88344Y-23455D01*
X88291Y-23454D01*
X88420Y-23350D01*
X88522Y-23162D01*
X88528Y-23134D01*
X88479Y-23050D01*
X87902Y-23050D01*
X87902Y-23057D01*
X87802Y-23057D01*
X87802Y-23050D01*
X87225Y-23050D01*
X87176Y-23134D01*
X87182Y-23162D01*
X87284Y-23350D01*
X87413Y-23454D01*
X87360Y-23454D01*
X87268Y-23492D01*
X87198Y-23563D01*
X87160Y-23655D01*
X87159Y-23754D01*
X87159Y-24344D01*
X87197Y-24436D01*
X87268Y-24506D01*
X87360Y-24544D01*
X87459Y-24545D01*
X88344Y-24545D01*
X88436Y-24507D01*
X88506Y-24436D01*
X88544Y-24344D01*
X88545Y-24291D01*
X88614Y-24396D01*
X88791Y-24514D01*
X89000Y-24555D01*
X89208Y-24514D01*
X89385Y-24396D01*
X89500Y-24224D01*
X89614Y-24396D01*
X89791Y-24514D01*
X90000Y-24555D01*
X90208Y-24514D01*
X90385Y-24396D01*
X90500Y-24224D01*
X90614Y-24396D01*
X90791Y-24514D01*
X91000Y-24555D01*
X91208Y-24514D01*
X91385Y-24396D01*
X91503Y-24219D01*
X91545Y-24010D01*
X91545Y-27989D01*
X91503Y-27780D01*
X91385Y-27603D01*
X91208Y-27485D01*
X91000Y-27444D01*
X90791Y-27485D01*
X90614Y-27603D01*
X90500Y-27775D01*
X90385Y-27603D01*
X90208Y-27485D01*
X90000Y-27444D01*
X89791Y-27485D01*
X89614Y-27603D01*
X89500Y-27775D01*
X89385Y-27603D01*
X89208Y-27485D01*
X89000Y-27444D01*
X88791Y-27485D01*
X88614Y-27603D01*
X88496Y-27780D01*
X88495Y-27787D01*
X88420Y-27649D01*
X88254Y-27515D01*
X88217Y-27504D01*
X88222Y-27503D01*
X88398Y-27385D01*
X88517Y-27208D01*
X88558Y-27000D01*
X88517Y-26791D01*
X88398Y-26614D01*
X88227Y-26500D01*
X88398Y-26385D01*
X88517Y-26208D01*
X88558Y-26000D01*
X88517Y-25791D01*
X88398Y-25614D01*
X88222Y-25496D01*
X88013Y-25455D01*
X87691Y-25455D01*
X87482Y-25496D01*
X87306Y-25614D01*
X87187Y-25791D01*
X87146Y-26000D01*
X87187Y-26208D01*
X87306Y-26385D01*
X87477Y-26500D01*
X87306Y-26614D01*
X87187Y-26791D01*
X87146Y-27000D01*
X87187Y-27208D01*
X87306Y-27385D01*
X87482Y-27503D01*
X87487Y-27504D01*
X87450Y-27515D01*
X87284Y-27649D01*
X87182Y-27837D01*
X87176Y-27865D01*
X87225Y-27950D01*
X87802Y-27950D01*
X87802Y-27942D01*
X87902Y-27942D01*
X87902Y-27950D01*
X87910Y-27950D01*
X87910Y-28050D01*
X87902Y-28050D01*
X87902Y-28545D01*
X88050Y-28545D01*
X88254Y-28484D01*
X88420Y-28350D01*
X88495Y-28212D01*
X88496Y-28219D01*
X88614Y-28396D01*
X88791Y-28514D01*
X89000Y-28555D01*
X89208Y-28514D01*
X89385Y-28396D01*
X89500Y-28224D01*
X89614Y-28396D01*
X89791Y-28514D01*
X90000Y-28555D01*
X90208Y-28514D01*
X90385Y-28396D01*
X90500Y-28224D01*
X90614Y-28396D01*
X90791Y-28514D01*
X91000Y-28555D01*
X91208Y-28514D01*
X91385Y-28396D01*
X91503Y-28219D01*
X91545Y-28010D01*
X91545Y-29200D01*
X87802Y-29200D01*
X87802Y-28545D01*
X87802Y-28050D01*
X87225Y-28050D01*
X87176Y-28134D01*
X87182Y-28162D01*
X87284Y-28350D01*
X87450Y-28484D01*
X87655Y-28545D01*
X87802Y-28545D01*
X87802Y-29200D01*
X87050Y-29200D01*
X87050Y-20800D01*
X92955Y-20800D01*
X92754Y-21000D01*
X92620Y-21324D01*
X92619Y-21674D01*
X92753Y-21997D01*
X93000Y-22245D01*
X93324Y-22379D01*
X93674Y-22380D01*
X93997Y-22246D01*
X94200Y-22044D01*
X94200Y-27955D01*
M02*
