M48
INCH,TZ
T1C0.032
T2C0.040
T3C0.126
%
G90
G05
T1
X8.2Y-2.2
X8.2Y-2.6
X8.25Y-2.75
X8.3Y-2.2
X8.3Y-2.6
X8.3Y-2.8
X8.35Y-2.75
X8.4Y-2.2
X8.4Y-2.6
X8.5Y-2.2
X8.5Y-2.3
X8.5Y-2.4
X8.5Y-2.6
X8.5Y-2.7
X8.5Y-2.8
X8.8Y-2.2
X8.8Y-2.3
X8.8Y-2.4
X8.8Y-2.6
X8.8Y-2.7
X8.8Y-2.8
X8.9Y-2.4
X8.9Y-2.8
X8.95Y-2.25
X9.Y-2.2
X9.Y-2.4
X9.Y-2.8
X9.05Y-2.25
X9.1Y-2.4
X9.1Y-2.8
T2
X7.95Y-2.35
X7.95Y-2.45
X7.95Y-2.55
X7.95Y-2.65
X9.35Y-2.35
X9.35Y-2.45
X9.35Y-2.55
X9.35Y-2.65
T3
X7.95Y-2.15
X7.95Y-2.85
X9.35Y-2.15
X9.35Y-2.85
T0
M30
